<?xml version="1.0" encoding="utf-8"?>
<!-- Generator: Adobe Illustrator 22.0.1, SVG Export Plug-In . SVG Version: 6.00 Build 0)  -->
<svg version="1.1" id="Layer_1" xmlns="http://www.w3.org/2000/svg" xmlns:xlink="http://www.w3.org/1999/xlink" x="0px" y="0px"
	 viewBox="0 0 500 122" style="enable-background:new 0 0 500 122;" xml:space="preserve">
<style type="text/css">
	.st0{fill:#84CD00;}
	.st1{fill:#333333;}
</style>
<g>
	<path class="st0" d="M457,67.7c3.8-5.7,7.7-11.5,11.5-17.3c1.3-2.1,3.1-3.2,5.4-3.2c3-0.1,6-0.3,9,0.3c2.7,0.5,3.1,1.3,1.5,3.6
		c-4.2,6.1-8.4,12.2-12.8,18.2c-1.3,1.7-1.3,3-0.1,4.7c5,7.7,9.9,15.6,14.8,23.4c2.2,3.5,1.6,4.7-2.7,4.8c-0.2,0-0.4,0-0.6,0
		c-10.4,0.1-10.4,0.1-15.8-8.7c-3-5-6-10-9.1-14.9c-0.4-0.6-0.5-1.5-1.8-1.8c0,6.8,0,13.4,0,20.1c0,3.8-1.1,5.1-4.9,5.2
		c-2.3,0.1-4.6,0.1-6.9-0.2c-2.5-0.3-3.8-1.7-3.8-4.5c0.1-23.2,0.1-46.4,0-69.6c0-2.9,1.5-4.3,4.1-4.5c2.4-0.2,4.8-0.2,7.2,0
		c3.2,0.2,4.2,1.4,4.2,4.6c0,12.1,0,24.3,0,36.4c0,1,0,2,0,2.9C456.6,67.6,456.8,67.7,457,67.7z"/>
	<path class="st0" d="M304,28.2c5.7,0,10.7,0.6,15.1,3.2c3.7,2.1,4.2,3.8,2.5,7.7c-0.5,1.2-1.2,2.3-2,3.4c-1.2,1.8-2.8,2.4-4.9,1.4
		c-3.9-1.9-8.1-2.1-12.4-1.7c-3.5,0.3-6,2.2-6.6,4.8c-0.6,2.6,0.8,5.2,3.8,7.2c3.9,2.5,8.4,3.8,12.6,5.7
		c12.4,5.7,17.2,18.9,11.2,31.3c-4.1,8.3-11.4,11.2-20,11.6c-6.8,0.3-13.6-0.5-19.9-3.5c-2.5-1.2-5.4-2.4-5.5-5.8
		c-0.1-3.7,2.2-6.3,4.9-8.5c1.2-0.9,2.3-0.4,3.3,0.2c3.4,1.9,7,3.4,11,3.8c0.9,0.1,1.8,0.2,2.7,0.2c5.1,0,8.2-1.9,9.1-5.8
		c0.8-3.5-0.9-6.5-5.2-8.8c-5-2.8-10.6-4.3-15.4-7.5c-7.8-5.1-10.1-12.5-9-21.1c1.1-8.5,6.5-13.7,14.5-16.3
		C297.4,28.5,301,28,304,28.2z"/>
	<path class="st0" d="M382.2,75c0.2,3-0.1,6-0.8,9c-3.1,14.5-13.8,19.9-27.2,18.7c-13.5-1.2-20.7-9.1-22-22.7
		c-0.6-6.5-0.4-12.8,1.9-19c3.3-8.7,9.9-13.1,18.9-14c5.2-0.6,10.4-0.4,15.4,1.7c9.8,4.1,12.9,12.5,13.8,22.2
		C382.3,72.2,382.2,73.6,382.2,75z M366.7,74.9c-0.1-1.9-0.2-3.8-0.4-5.7c-0.1-1.2-0.4-2.4-0.8-3.5c-1.4-4.6-3.9-6.7-8-6.8
		c-4.5-0.1-7.5,1.9-8.9,6.6c-1.9,6.4-1.8,12.8,0.3,19.2c1.4,4,4.1,5.8,8.1,5.8c4,0,6.7-1.9,8.1-5.8
		C366.4,81.5,366.8,78.3,366.7,74.9z"/>
	<path class="st1" d="M73.9,81.5c0,4.1-0.1,8.2,0,12.3c0.1,3.2-1.3,5.4-4.2,6.2c-12.1,3.5-24.3,4.5-36.1-1.1
		c-7-3.3-10.9-9.3-12.9-16.5c-3-10.7-3.2-21.6-0.1-32.4c3.2-11.6,10.8-18.6,22.8-20.8c8.4-1.5,16.6-1.1,24.5,2.1
		c4.1,1.6,5,3.3,3.4,6.5c-1.6,3.3-2.2,3.6-5.4,1.9c-6.3-3.3-13.1-3.8-19.9-2.7c-9.1,1.4-14.6,7.1-16.7,15.9
		c-2,8.4-1.9,16.9,0.2,25.3c2.7,10.6,9,15.6,19.9,16.4c4.4,0.3,8.8-0.2,13.2-0.7c1.5-0.2,2.2-0.7,2.2-2.4c-0.1-5.7-0.1-11.4,0-17.2
		c0-1.6-0.5-2-2-2c-3.1,0.1-6.2,0-9.3,0.1c-3.1,0.1-2.9-2.1-3-4.1c-0.1-2,0.1-3.8,2.9-3.8c5.7,0.1,11.4,0.1,17.2,0
		c2.5,0,3.4,1.2,3.4,3.5C73.9,72.4,73.9,77,73.9,81.5z"/>
	<path class="st0" d="M405.1,74.7c0,1.2-0.1,2.4,0,3.6c0.5,9.7,6,13.9,15.5,11.8c1.8-0.4,3.7-1.1,5.4-1.9c2.1-1,3.7-0.4,4.9,1.4
		c0.6,0.9,1.2,1.9,1.7,2.8c1.6,3.3,1.2,5.5-2.2,6.9c-10.4,4.5-21,5-31.2-0.6c-4.4-2.4-7-6.6-8.4-11.3c-2.3-7.9-2.4-15.8-0.4-23.8
		c2.2-8.8,7.9-14.2,16.8-16c7-1.4,14-1.3,20.7,1.2c2.3,0.9,5.1,1.9,5,4.9c-0.1,3.1-2.1,5.6-4.3,7.6c-1.1,1-2.1,0.2-3-0.3
		c-2.5-1.2-5-2.1-7.8-2.1c-7.8-0.2-11.9,3.4-12.6,11.3c-0.1,1.5-0.1,3-0.2,4.5C405,74.7,405,74.7,405.1,74.7z"/>
	<path class="st1" d="M195.2,78.3c-4.9,0-9.8,0.1-14.8,0c-1.7,0-2,0.6-1.8,2.1c0.9,10.1,6.7,15.2,16.8,14.7
		c4.4-0.2,8.6-1.2,12.3-3.5c2.3-1.4,3.5-0.4,4.6,1.5c1.1,1.9,1.7,3.6-0.7,5.1c-4.4,2.8-9.3,3.7-14.3,4.2c-2.7,0.3-5.5,0.2-8.1-0.2
		c-12.1-1.8-18.6-8.8-19.7-21c-0.6-6.8-0.6-13.4,1.7-19.9c3-8.4,9.1-13.1,17.8-14.1c8.2-0.9,16,0.1,21.1,7.7
		c3.9,5.7,4.6,12.3,4.6,19c0,2.6-2.3,4.4-5,4.5C204.9,78.3,200,78.3,195.2,78.3z M191.9,71c2.9,0,5.8,0,8.7,0c5.3,0,5.3,0,4.5-5.3
		c-1.1-8.1-6.5-12.1-14.6-10.9c-7,1-12.2,7.5-12,14.7c0.1,1.5,0.8,1.5,1.9,1.5C184.3,70.9,188.1,71,191.9,71z"/>
	<path class="st1" d="M141.2,78.3c-4.9,0-9.8,0.1-14.7,0c-1.6,0-2,0.3-1.8,2c1.5,12.8,9.5,16.8,22.6,13.9c2.4-0.5,4.6-1.4,6.6-2.7
		c2.5-1.5,3.4,0.1,4.5,1.7c1.1,1.8,1.5,3.5-0.7,4.9c-4.2,2.7-8.9,3.7-13.7,4.2c-3.8,0.4-7.6,0.3-11.4-0.5c-10.4-2.4-16-9-17.2-20.8
		c-0.7-6.9-0.7-13.8,1.9-20.5c3.1-7.8,8.9-12.3,17.1-13.3c8.5-1.1,16.6-0.1,21.8,8c3.7,5.7,4.4,12.2,4.4,18.7c0,2.6-2.3,4.4-5.1,4.4
		C150.8,78.3,146,78.3,141.2,78.3z M137.9,71c2.6,0,5.2,0,7.8,0c6.6,0,6.6,0,5.1-6.6c-1.3-5.8-4.3-8.9-9.6-9.7
		c-9.3-1.4-16.7,5.1-16.8,14.6c0,1.4,0.6,1.6,1.8,1.6C130.1,70.9,134,71,137.9,71z"/>
	<path class="st1" d="M232.4,54.4c5.2-5,10.8-8,17.8-7.6c8.9,0.5,14.9,6.2,15.1,15.1c0.3,12.2,0.1,24.5,0.2,36.7
		c0,3.5-2.4,3.3-4.5,3.3c-2,0-4.2,0-4.2-3.3c0.1-10.8,0.1-21.7,0-32.5c0-10.1-7.4-14.8-16.6-10.5c-2,0.9-3.7,2.3-5.4,3.8
		c-1.3,1.2-1.9,2.6-1.9,4.5c0.1,11.3,0.1,22.7,0,34c0,3.3-0.9,4.1-4.4,4.1c-3.5,0-4.2-0.8-4.3-4.2c-0.2-14.1,0.5-28.3-0.5-42.4
		c-0.1-0.9-0.1-1.8-0.3-2.7c-0.6-2.2-0.6-3.9,2.1-4.6c3.4-0.9,4.9-0.3,5.9,2.7C231.8,52,232,53.1,232.4,54.4z"/>
	<path class="st1" d="M92.9,54.2c2.1-2.2,3.9-4.3,6.3-5.7c2.1-1.2,4.2-1.7,6.6-1.6c4.1,0.3,5.5,2.1,4.7,6.2
		c-0.6,3.2-1.2,3.6-4.4,2.7c-6.3-1.8-12.7,3-12.7,9.5c0,10.8,0,21.7,0,32.5c0,3.7-0.7,4.4-4.4,4.4c-3.7,0-4.4-0.7-4.4-4.3
		c0-12.3,0-24.7-0.1-37c0-3-0.3-6-0.8-9c-0.3-1.8-0.2-3.1,1.7-3.5c2-0.4,4.4-1.7,5.8,1.1C91.9,50.9,92.3,52.4,92.9,54.2z"/>
</g>
</svg>
