<?xml version="1.0" encoding="utf-8"?>
<!-- Generator: Adobe Illustrator 22.0.1, SVG Export Plug-In . SVG Version: 6.00 Build 0)  -->
<svg version="1.1" id="Layer_1" xmlns="http://www.w3.org/2000/svg" xmlns:xlink="http://www.w3.org/1999/xlink" x="0px" y="0px"
	 viewBox="0 0 500 500" style="enable-background:new 0 0 500 500;" xml:space="preserve">
<style type="text/css">
	.st0{fill:#D9DAD7;}
	.st1{fill:#404549;}
	.st2{fill:none;}
	.st3{font-family:'OpenSans-Bold';}
	.st4{font-size:52.6366px;}
	.st5{letter-spacing:3.5;}
</style>
<g>
	<path class="st0" d="M497.9,262.1c-0.9,36.8-12.9,77.9-36.5,115.7c-12.8,20.5-28.4,38.7-46,55.1c-11.1,10.2-24.2,17.8-37.2,25.2
		c-28.3,16.1-58.6,27.4-90.7,32.8c-21.5,3.6-43.3,4.1-65.5,1.2c-26.6-3.4-51.6-10.6-75.6-22.2c-21.6-10.4-41.8-22.9-60.3-38.4
		c-16-13.4-29.4-28.9-40.5-46.4c-19.8-31.1-33.2-64.6-38.9-101.1c-5.3-33.7-2.1-66.9,7.3-99.5c7-24.6,17.5-47.9,31.5-69.3
		c12.4-18.9,28.3-35,45.8-49.6c16.6-13.9,34.2-26,53.7-35.1c22.2-10.4,45.4-17.3,69.7-21.1c15.8-2.5,31.7-3.2,47.5-3.3
		c32.3-0.1,63.4,7.1,93,20.7c22.8,10.5,43.1,24.3,61.6,41.3c22.6,20.7,41.1,44.5,55.1,71.4c11.2,21.5,17.9,44.9,21.8,68.9
		C496.4,223.7,498.1,239,497.9,262.1z M252.3,15.2c-46.2-0.8-90,12.8-130.4,38.9C36.3,109.6-4.1,210.1,21.3,308.5
		c17.4,67.4,57.3,117.9,119.5,149.8c42.5,21.8,87.3,32.1,135.4,25.2c33.6-4.8,65.5-14.7,95.1-31.4c86.9-49.1,128.4-141,115.3-236.9
		c-8.1-59.2-37.2-107.6-82.2-146.5C361.4,31.6,310.8,14.8,252.3,15.2z"/>
	<path class="st1" d="M252.3,15.2c58.5-0.4,109,16.4,152,53.5c45,38.8,74.1,87.2,82.2,146.5c13.1,95.9-28.4,187.9-115.3,236.9
		c-29.7,16.8-61.5,26.6-95.1,31.4c-48.1,6.9-92.9-3.4-135.4-25.2C78.6,426.4,38.6,375.9,21.3,308.5C-4.1,210.1,36.3,109.6,122,54.1
		C162.3,28,206.2,14.4,252.3,15.2z M248.8,19.9c-14.3,0.4-28.7,1.2-42.8,4.2c-54.7,11.7-99.9,39.4-135.5,82.2
		c-28.9,34.7-45.6,74.9-50.3,119.9c-0.4,4.3-0.5,7,5.5,6.6c5.9-0.4,11,5.6,10.6,10.8c-0.4,5.4-6.3,10.9-11.8,9.4
		c-5.8-1.5-5.8,0.9-5.6,5.2c1.6,35.1,9.6,68.4,26.4,99.4c38.6,70.9,99.3,110,178.2,121.6c33,4.8,65.4-0.2,97-10.3
		c49.4-15.8,90.4-43.6,120.9-85.9c27.5-38.1,41-81,42.6-127.8c0.1-2.3,2.3-7.5-3.9-5.3c-4.8,1.8-8.5,0.4-11.5-3.3
		c-2.7-3.3-2.2-7.2-0.8-10.8c1.7-4.4,5.4-6.9,10.1-6.2c5,0.7,5.5-1.3,5-5.5c-4.3-38-16.8-72.9-38.8-104.3
		C396.6,52.3,331.7,18.4,248.8,19.9z"/>
	<path class="st0" d="M248.8,19.9c83-1.5,147.9,32.4,195.3,100c22,31.3,34.5,66.3,38.8,104.3c0.5,4.2,0,6.2-5,5.5
		c-4.7-0.7-8.4,1.8-10.1,6.2c-1.4,3.6-2,7.5,0.8,10.8c3,3.6,6.7,5,11.5,3.3c6.2-2.3,4,2.9,3.9,5.3c-1.6,46.8-15.1,89.7-42.6,127.8
		c-30.5,42.3-71.5,70.2-120.9,85.9c-31.6,10.1-64.1,15.1-97,10.3c-78.9-11.6-139.6-50.7-178.2-121.6c-16.8-30.9-24.8-64.3-26.4-99.4
		c-0.2-4.3-0.2-6.7,5.6-5.2c5.5,1.4,11.4-4,11.8-9.4c0.4-5.2-4.7-11.2-10.6-10.8c-6,0.4-5.9-2.4-5.5-6.6
		c4.7-45,21.4-85.2,50.3-119.9c35.7-42.8,80.8-70.6,135.5-82.2C220.1,21.1,234.4,20.2,248.8,19.9z M251.2,32.2
		c-53.6,0.3-101.7,18.5-143.3,54c-39.1,33.3-63,75.6-72.6,126.1c-0.7,3.5-1,6.2,3.3,8.9c17.3,10.8,16.7,34.1-1,44.3
		c-3.6,2.1-4.3,4.2-4,8c2.5,27.2,10.1,52.9,23.1,76.8c36.5,67.2,93.6,105.4,168.8,115.5c49.2,6.6,95.2-5.8,138-30.1
		c37.2-21.1,65.4-51,84.6-89.2c12.1-24.1,19.5-49.7,21.8-76.6c0.2-2.8,0.6-5.1-2.9-6.5c-18.4-7.4-20.7-34.9-2.3-44.8
		c3.5-1.9,3.9-4.2,3.3-7.7c-6.6-35.5-20.9-67.6-43.3-95.8C380.6,59.8,323.2,32,251.2,32.2z"/>
	<path class="st1" d="M251.2,30.9c72-0.2,129.4,27.5,173.4,82.7c22.5,28.2,36.7,60.3,43.3,95.8c0.6,3.4,0.2,5.8-3.3,7.7
		c-18.3,9.9-16.1,37.4,2.3,44.8c3.5,1.4,3.2,3.7,2.9,6.5c-2.3,26.9-9.6,52.5-21.8,76.6c-19.2,38.2-47.4,68.1-84.6,89.2
		c-42.8,24.3-88.9,36.7-138,30.1C150.3,454.2,93.2,416,56.6,348.8c-13-23.9-20.7-49.6-23.1-76.8c-0.3-3.8,0.4-5.9,4-8
		c17.7-10.2,18.4-33.5,1-44.3c-4.3-2.6-4-5.3-3.3-8.9c9.6-50.4,33.5-92.7,72.6-126.1C149.5,49.4,197.6,31.2,251.2,30.9z
		 M251.2,270.5c-2.5,0-4.9,0-7.4,0c-65-0.1-130-0.1-195-0.4c-5.1,0-7.3,1.6-6.3,6.5c0.8,4.3,4.6,2.8,7.2,2.8
		c100.5-0.1,201.1,1,301.6-0.8c34.2-0.6,68.4-1.3,102.5-1.8c4.8-0.1,7.4-1.2,6.3-6.5c-1-4.6-4.7-2.6-7.2-2.5
		C385.6,269.1,318.4,270.9,251.2,270.5z M251.4,208.1c-20,0-40,0-60,0c-47.2-0.1-94.4-0.2-141.6-0.5c-5.1,0-5.7,2.3-5.2,6.2
		c0.7,4.7,4.6,2.7,7,2.8c52.8,1.3,105.6,0.2,158.3,0.2c61.6,0,123.2-0.1,184.8-1.6c19.3-0.5,38.7-0.9,58-1.2
		c3.4-0.1,5.4-0.7,5.2-4.9c-0.2-5-3.5-3.7-6.2-3.6C384.9,207.7,318.1,206,251.4,208.1z M271.7,347.2c0.6,2.7-0.7,7.6,4.2,6.4
		c7.1-1.8,14.2-1,21.3-1.1c4.6-0.1,4.8-2.4,5-6c0.1-4.2-1.9-4.8-5.4-4.7c-6.7,0.2-13.5,0.4-20.2,0.2
		C272.7,341.9,271,343.3,271.7,347.2z M171.2,337.5c0,0,0.1,0,0.1,0c0-3.6-0.1-7.2,0-10.7c0.2-3.2-0.6-5.1-4.4-4.9
		c-3.1,0.1-5.1,0.2-6.1,4.3c-1.7,7.1,0.9,14-0.2,21c-0.6,3.8,0.7,5.6,5,5.7c4.7,0.1,5.8-1.8,5.5-5.9
		C171,343.8,171.2,340.7,171.2,337.5z M287.2,415.9c0,0,0,0.1,0,0.1c-3.8,0-7.6,0.2-11.4-0.1c-4.2-0.3-4.7,2-4.6,5.4
		c0,3.3,0.2,5.6,4.6,5.4c6.7-0.3,13.4-0.2,20.1-0.2c3.8,0,6.9,0.3,6.8-5.4c-0.1-5.5-2.8-5.6-6.7-5.3
		C293,416.1,290.1,415.9,287.2,415.9z M138.7,406.8c3.6,0,7.2-0.2,10.7,0.1c4.3,0.3,4.5-2.2,4.6-5.5c0.2-3.6-0.7-5.4-4.7-5.3
		c-6.9,0.2-13.9,0.2-20.8,0c-4.2-0.1-5.3,1.7-5.5,5.6c-0.2,4.5,1.9,5.4,5.6,5.1C132,406.6,135.3,406.8,138.7,406.8z M346.5,405.1
		c8.7,0,17.4-0.1,26.1,0.1c3.6,0.1,5.4-0.8,5.1-4.9c-0.2-3.6-0.5-6.1-5.1-5.8c-6.7,0.3-13.5,0.4-20.2,0.2c-4.5-0.2-6.1,1.6-5.6,6
		C347,401.9,346.7,403.3,346.5,405.1z M139.5,332.6c3.6,0,7.2-0.2,10.7,0.1c4.3,0.3,4.6-2.2,4.7-5.4c0.1-3.5-0.8-5.5-4.8-5.4
		c-6.7,0.2-13.4,0.3-20.1,0c-4.6-0.2-5.7,1.9-5.7,6c-0.1,4.5,2.3,5.1,5.9,4.9C133.2,332.4,136.4,332.6,139.5,332.6z M265.4,411.6
		C265.4,411.6,265.4,411.6,265.4,411.6c-0.1-3.6-0.2-7.2,0-10.8c0.2-4-1.8-5-5.3-4.9c-3.6,0.1-5.3,1.1-5.1,5.1
		c0.3,6.5,0.2,13,0.1,19.5c0,3.5-0.4,6.4,5,6.4c5.5,0,5.7-2.7,5.5-6.7C265.3,417.5,265.4,414.5,265.4,411.6z M249.8,444.4
		c0,0,0-0.1,0-0.1c3.8,0,7.6-0.1,11.4,0c4.3,0.1,4.4-2.6,4.4-5.8c0-3.1-0.6-5.1-4.4-5c-6.7,0.2-13.4,0.3-20.2,0.1
		c-4.4-0.2-6.4,0.9-6.4,5.9c0,5.3,2.9,5.1,6.5,5C244,444.3,246.9,444.4,249.8,444.4z M212.5,427C212.5,427,212.5,427,212.5,427
		c3.6,0,7.2-0.2,10.8,0c4,0.3,4.9-1.5,4.8-5.2c-0.1-3.4-0.4-5.6-4.6-5.5c-6.7,0.2-13.5,0.3-20.2,0c-4.3-0.2-6,1.2-6,5.7
		c-0.1,4.7,2.2,5.1,5.8,4.9C206.2,426.9,209.3,427,212.5,427z M176.2,359.2C176.2,359.2,176.2,359.2,176.2,359.2
		c-3.6-0.1-7.2,0.1-10.7-0.1c-3.8-0.2-5,1.4-5,5.1c0,3.8,0.9,5.9,5.2,5.7c6.7-0.2,13.4-0.3,20.1,0c4.5,0.2,5.6-1.8,5.7-6
		c0.1-4.9-2.6-4.8-5.9-4.7C182.5,359.3,179.4,359.2,176.2,359.2z M320,410.7c-0.1,0-0.1,0-0.2,0c0-3.1-0.2-6.3,0.1-9.4
		c0.4-4.2-0.9-6-5.5-5.9c-4.3,0.1-5.3,1.7-5.2,5.6c0.3,6.7,0.4,13.4,0.3,20.1c-0.1,4,1.3,5.5,5.5,5.4c4.3-0.1,5.4-2,5.1-5.8
		C319.8,417.4,320,414,320,410.7z M287.2,321.9c0,0.1,0,0.2,0,0.3c-3.6,0-7.2,0.2-10.8-0.1c-4.1-0.3-4.9,1.6-5,5.2
		c0,3.6,0.9,5.4,4.9,5.2c6.5-0.3,13-0.2,19.5-0.1c3.7,0.1,6.4-0.1,6.3-5.2c-0.1-4.8-2.2-5.7-6.3-5.4
		C293,322.1,290.1,321.9,287.2,321.9z M181,336.7C181,336.7,181,336.7,181,336.7c-0.1,3.8,0.1,7.6-0.1,11.4
		c-0.3,4.2,1.9,4.7,5.3,4.7c3.4,0,5.5-0.6,5.4-4.8c-0.2-6.7,0.1-13.4,0-20.1c-0.1-2.9,1.1-6.6-4.4-6.2c-4.2,0.3-6.8,1.3-6.2,6.2
		C181.3,330.9,181,333.8,181,336.7z M211.9,406.8C211.9,406.8,211.9,406.8,211.9,406.8c3.8,0,7.6-0.2,11.4,0c4,0.3,4.9-1.6,4.8-5.2
		c-0.1-3.4-0.6-5.6-4.7-5.4c-6.7,0.2-13.4,0.2-20.2,0.1c-4.1-0.1-6,1-6,5.6c0,4.6,2.3,5.1,5.9,4.9
		C206.1,406.7,209,406.8,211.9,406.8z M324.2,368.8c0,0,0-0.1,0-0.1c3.6,0,7.2-0.2,10.7,0.1c4.1,0.3,4.8-1.9,4.7-5.3
		c-0.1-3.4-0.8-5.5-4.9-5.3c-6.7,0.4-13.4,0.5-20.1,0.3c-4.2-0.1-5.8,1.1-5.8,5.7c0,4.8,2.6,4.8,6,4.7
		C317.9,368.7,321,368.8,324.2,368.8z M324.5,389C324.5,388.9,324.5,388.9,324.5,389c3.4-0.1,6.8-0.3,10.1,0
		c4.4,0.4,5.3-1.8,5.2-5.6c-0.1-3.7-1.2-5.3-5.1-5.1c-6.5,0.3-13,0.3-19.6,0.1c-3.9-0.1-6.3,0.4-6.3,5.3c0,4.9,2.1,5.7,6.1,5.4
		C318.2,388.8,321.4,389,324.5,389z M175.9,379.4c-3.6,0-7.2,0.2-10.8-0.1c-4.2-0.3-4.6,1.9-4.7,5.3c-0.1,3.6,1,5.4,4.9,5.4
		c6.7-0.1,13.5-0.2,20.2,0c4.4,0.2,5.8-1.5,5.9-5.9c0.1-4.8-2.6-4.9-6-4.8C182.2,379.5,179,379.5,175.9,379.4z M249.5,389.9
		c0-0.1,0-0.1,0-0.2c3.8,0,7.6-0.1,11.4,0c3.8,0.2,4.4-1.9,4.4-5.1c0-3.3-0.5-5.6-4.8-5.4c-6.5,0.3-13,0.2-19.5,0.1
		c-3.6-0.1-6.3-0.3-6.4,5c0,5.6,2.8,5.7,6.8,5.5C244.1,389.8,246.8,389.9,249.5,389.9z M340.1,410.5c0,0-0.1,0-0.1,0
		c0-3.4-0.3-6.7,0.1-10.1c0.6-5.8-3.1-5.2-6.8-5.1c-4.7,0-6,3.1-4.9,6.4c1.9,6.1,1.2,12.3,1.4,18.5c0.1,4.4,1.7,5.7,6,5.8
		c4.9,0,4.7-2.8,4.5-6.1C340,416.8,340.1,413.7,340.1,410.5z M135.8,300.4c0.1,0,0.1,0,0.2,0c0-2.7,0-5.4,0-8c0-3.6,0.7-7.1-5.1-7.1
		c-5.3,0-5.6,2.8-5.5,6.8c0.1,5.8,0.1,11.6-0.1,17.4c-0.1,3.9-0.3,6.8,5.3,6.8c5.7-0.1,5.2-3.5,5.2-7.1
		C135.8,306.2,135.8,303.3,135.8,300.4z M413,336.9c-0.2,0-0.4,0-0.5,0c0-4,0-8,0-12.1c0.1-3.6-1.8-4.5-5.1-4.4
		c-3.3,0.2-5.6,0.6-5.3,4.9c0.5,6.9,0.6,13.8,0.7,20.8c0,4.2,2.1,5,5.9,5c4.4,0,4.6-2.3,4.4-5.5C412.9,342.7,413,339.8,413,336.9z
		 M397.4,314.6c0-0.1,0-0.1,0-0.2c3.4,0,6.7-0.1,10.1,0c3.4,0.1,5.6-0.6,5.3-4.8c-0.2-3.6-0.7-6-5.2-5.7c-6.5,0.4-13,0.3-19.5,0.2
		c-3.5,0-6,0.2-6,4.9c0,4.4,1.6,6.1,5.9,5.7C391.1,314.3,394.3,314.6,397.4,314.6z M366.1,372.8c0.2,0,0.5,0,0.7,0
		c0,3.6,0.2,7.2-0.1,10.7c-0.4,4.5,2.1,5.1,5.7,5.1c4,0,5-1.8,4.7-5.4c-0.4-6.5-0.7-13-0.6-19.4c0.1-4-0.7-6-5.5-6
		c-5.1,0-5.4,2.5-5.1,6.3C366.3,366.9,366.1,369.8,366.1,372.8z M234.8,411.7C234.8,411.7,234.8,411.7,234.8,411.7
		c0,3.1,0.2,6.3-0.1,9.4c-0.3,4.2,0.8,6,5.5,5.9c4.3-0.1,5.4-1.7,5.2-5.6c-0.2-6.5-0.3-13,0-19.5c0.2-3.9-0.9-5.9-5.2-5.7
		c-3.7,0.1-6,1-5.5,5.4C235.1,405,234.8,408.4,234.8,411.7z M139.3,352.8C139.3,352.8,139.3,352.7,139.3,352.8c3.4,0,6.7-0.3,10,0
		c4.4,0.4,5.3-1.8,5.3-5.5c0-3.6-1-5.3-4.9-5.2c-6.5,0.2-13,0.2-19.4-0.1c-4.5-0.2-6.2,1.3-6.3,6.1c-0.1,5.4,3.2,4.8,6.6,4.8
		C133.5,352.7,136.4,352.8,139.3,352.8z M250.1,316.2C250.1,316.2,250.1,316.2,250.1,316.2c3.6,0,7.2-0.2,10.8,0
		c4.2,0.3,4.8-2,4.8-5.4c0-3.6-0.8-5.5-4.9-5.3c-6.5,0.3-13,0.3-19.5,0.1c-4-0.1-6.3,0.5-6.3,5.4c0,4.9,2.5,5.5,6.4,5.3
		C244.2,316,247.2,316.2,250.1,316.2z M291.6,373c0.1,0,0.2,0,0.2,0c0,4.2,0,8.5,0,12.7c0,3.8,2.9,3.3,5.3,3.3
		c2.3,0,5.2,0.6,5.2-3.3c-0.1-7.8,0.1-15.7-0.2-23.5c-0.2-5.4-5.3-2.3-7.9-3.8c-1.9-1.1-2.9,2-2.6,4.5
		C291.8,366.3,291.6,369.7,291.6,373z M302.2,301.1C302.2,301.1,302.2,301.1,302.2,301.1c0-3.6-0.2-7.2,0-10.7
		c0.2-3.9-1.5-5.2-5.2-4.9c-3.1,0.2-5.7,0.4-5.5,4.8c0.3,6.9,0.3,13.8,0.2,20.7c0,3.8,1.6,5,5.3,5.1c3.6,0,5.5-0.9,5.2-4.9
		C302,307.8,302.2,304.5,302.2,301.1z M249.8,369.9C249.8,369.8,249.8,369.8,249.8,369.9c3.1,0,6.3-0.1,9.4,0c3.5,0.1,6.2-0.2,6-4.9
		c-0.1-4-1-6.2-5.8-5.8c-6,0.4-12.1,0.3-18.2,0.1c-4.1-0.1-6.7,0.1-6.6,5.5c0.1,5.1,2.7,5.3,6.4,5.2
		C243.9,369.7,246.9,369.9,249.8,369.9z M213,352.7C213,352.7,213,352.7,213,352.7c3.4,0,6.7-0.2,10.1,0c3.8,0.3,5-1.1,5.1-4.9
		c0.1-4-1-5.7-5.2-5.6c-6.5,0.2-13,0.3-19.4,0c-3.8-0.1-5.8,0.7-5.8,5c-0.1,4.5,1.7,5.9,6,5.5C206.7,352.5,209.9,352.7,213,352.7z
		 M392.8,336.9c-0.1,0-0.1,0-0.2,0c0-3.8-0.2-7.6,0.1-11.4c0.4-5.5-4.5-4.2-6.9-5c-3.3-1-3.7,2.2-3.6,4.8c0.1,6.7,0.3,13.4,0.3,20.1
		c0,3.8,0.7,6.1,5.6,6c5.3-0.1,5-3,4.8-6.5C392.7,342.2,392.8,339.5,392.8,336.9z M176.6,316.1c3.8,0,7.6,0,11.4,0
		c6.5,0,2.9-5.4,4-8.1c1.1-2.7-2-2.6-3.8-2.6c-6.5-0.1-13,0-19.4-0.1c-3.8-0.1-6.8-0.4-6.9,5.3c0,5.4,2.7,5.7,6.7,5.5
		C171.2,316,173.9,316.1,176.6,316.1z M234.8,337.1c0,3.6,0.2,7.2-0.1,10.8c-0.3,3.9,1.4,5,5.1,5c3.9,0,5.8-0.9,5.6-5.3
		c-0.3-6.3-0.3-12.5-0.2-18.8c0.1-3.7-0.1-6.3-5.2-6.4c-5.5-0.1-5.6,2.8-5.4,6.7C234.9,331.7,234.7,334.4,234.8,337.1z M396.4,294.6
		c0,0,0-0.1,0-0.1c3.6,0,7.2-0.2,10.7,0c4.1,0.3,4.8-1.7,4.7-5.3c-0.1-3.4-0.5-5.6-4.7-5.4c-6.3,0.3-12.5,0.1-18.8,0.3
		c-3.3,0.1-6.6-0.6-6.6,4.9c0.1,5.2,2.3,6,6.5,5.6C391,294.4,393.7,294.6,396.4,294.6z M212.6,166.2c0,0,0-0.1,0-0.1
		c3.8,0,7.6-0.1,11.4,0c4.6,0.2,4.1-2.8,4.2-5.8c0.1-3.4-1.1-4.8-4.6-4.7c-6.5,0.2-12.9,0.3-19.4,0.1c-3.7-0.1-5.8,0.6-5.7,5
		c0,4.1,1.5,5.7,5.5,5.4C206.8,166.1,209.7,166.2,212.6,166.2z M394.6,200c0,0,0-0.1,0-0.1c3.6,0,7.2-0.1,10.7,0
		c4.1,0.2,4-2.4,3.9-5.3c0-3.1-0.3-5.2-4.3-5c-6.7,0.3-13.4,0.3-20.1,0.2c-3.7-0.1-5.3,1-5.2,4.9c0,4,1.5,5.7,5.6,5.3
		C388.3,199.8,391.4,200,394.6,200z M285,166.1c0-0.1,0-0.1,0-0.2c3.8,0,7.6,0,11.4,0c3.9,0.1,4.2-2.5,4-5.4c-0.1-3-0.6-5.2-4.5-5
		c-6.5,0.3-13,0.5-19.5,0.3c-3.9-0.1-5.8,0.9-5.9,5.1c-0.1,4.2,1.8,5.5,5.7,5.2C279.1,166,282,166.1,285,166.1z M286.5,406.4
		c0-0.1,0-0.1,0-0.2c3.4,0,6.7-0.1,10.1,0c4.1,0.2,6-1,5.9-5.7c-0.1-4.5-1.9-5.2-5.7-5c-6,0.3-12.1,0.4-18.1,0.2
		c-4.1-0.1-6.7,0.3-6.6,5.6c0.1,5.1,2.7,5.3,6.4,5.1C281.1,406.3,283.8,406.4,286.5,406.4z M218.6,301.3c0,3.3,0.2,6.7-0.1,10
		c-0.3,4,1.5,5,5.1,4.9c3.4-0.1,5.6-0.6,5.5-4.7c-0.2-6.5-0.2-12.9,0-19.4c0.1-3.9-0.3-6.2-5.2-6.3c-4.8,0-5.6,2.1-5.3,6.1
		C218.8,295.1,218.6,298.2,218.6,301.3z M177,296c3.6,0,7.2-0.2,10.8,0.1c3.9,0.3,4.3-1.9,4.3-5c0-3.3-0.2-5.7-4.5-5.5
		c-6.5,0.2-13,0.2-19.5,0c-3.9-0.1-6.2,0.3-6.1,5.2c0.1,4.9,2.4,5.6,6.3,5.3C171.2,295.8,174.1,296,177,296z M434.6,320
		c0,0.1,0,0.2,0,0.2c-3.6,0-7.2,0.2-10.8,0c-3.7-0.2-4.6,1.6-4.4,4.9c0.2,3-0.1,5.9,4.5,5.6c6.7-0.4,13.5-0.5,20.2-0.5
		c4.2,0,5.3-2,5.4-5.8c0.1-4.2-2.1-4.8-5.5-4.6C440.9,320.2,437.7,320,434.6,320z M102.3,369.9C102.3,369.9,102.3,369.9,102.3,369.9
		c3.6,0,7.2-0.1,10.8,0.1c4.5,0.2,4.1-2.9,4.3-5.9c0.2-3.3-0.6-5-4.4-4.9c-6.5,0.2-13,0.3-19.5,0c-4.4-0.2-6.5,0.8-6.5,5.8
		c0,5.2,3,5.1,6.6,5C96.4,369.8,99.4,369.9,102.3,369.9z M104.4,296.1c0,0,0-0.1,0-0.1c3.4,0,6.7-0.2,10.1,0
		c4.3,0.3,4.5-2.3,4.6-5.5c0.1-3.7-1-5.3-4.9-5.1c-6.5,0.3-13,0.4-19.5,0.1c-4.6-0.2-5.6,1.8-5.7,6c-0.2,5,2.7,4.7,6,4.6
		C98.2,296,101.3,296.1,104.4,296.1z M104.5,305.4C104.5,305.4,104.5,305.4,104.5,305.4c-3.6,0-7.2,0.3-10.8,0
		c-4.6-0.3-4.9,2.2-5,5.8c-0.1,3.7,1,5.3,4.9,5.1c6.3-0.3,12.6-0.3,18.8-0.1c4.3,0.1,6.5-0.8,6.5-5.9c0.1-5.3-2.9-5.1-6.4-5
		C109.8,305.4,107.2,305.4,104.5,305.4z M250.1,182.1C250.1,182.1,250.1,182.1,250.1,182.1c3.1,0.1,6.3-0.1,9.4,0.1
		c4.2,0.3,5.4-1.5,5.3-5.6c0-3.9-1.4-5.1-5.2-4.9c-6.3,0.2-12.6,0.2-18.9,0c-3.8-0.1-5.8,0.7-5.8,5.1c0,4.3,1.7,5.6,5.7,5.4
		C243.7,182,246.9,182.1,250.1,182.1z M323.2,295.8c0-0.1,0-0.1,0-0.2c3.6,0,7.2-0.2,10.7,0c4.5,0.3,4.9-2.2,5-5.9
		c0.1-4-1.7-4.9-5.3-4.7c-6.3,0.3-12.5,0.4-18.8,0.2c-4.1-0.1-6,0.8-6.1,5.5c-0.1,5.2,2.7,5.2,6.4,5
		C317.8,295.7,320.5,295.8,323.2,295.8z M249.8,102c-3.4,0-6.7,0.1-10.1,0c-3.8-0.2-5.1,1.4-5,5.2c0,3.6,0.8,5.4,4.8,5.2
		c6.5-0.3,13-0.2,19.5-0.1c3.4,0.1,5.5-0.4,5.4-4.6c-0.1-3.8-0.9-6-5.3-5.7C256.1,102.2,253,102,249.8,102z M449.4,299.6
		c-0.1,0-0.3,0-0.4,0c0-4,0-8.1,0-12.1c0.1-4.7-3.2-3.8-6.1-3.9c-2.9-0.1-4.6,0.6-4.4,4.1c0.4,6.7,0.5,13.4,0.5,20.2
		c0,4,1.3,5.9,5.9,5.8c4.9-0.1,4.7-2.7,4.6-6C449.3,305,449.4,302.3,449.4,299.6z M249.6,120.9c-2.9,0-5.8,0.1-8.7,0
		c-4-0.2-6.2,0.6-6.2,5.4c0,4.7,2.3,5,5.9,4.9c6-0.1,12.1-0.1,18.1,0c3.6,0.1,5.9-0.3,5.9-4.9c0-4.8-2.2-5.6-6.2-5.4
		C255.4,121,252.5,120.9,249.6,120.9z M335.9,83.5c-0.3-5-0.6-8.4-0.6-11.7c0-3.5-1-5.3-5.1-5.2c-3.9,0.1-5.1,1.6-5,5.3
		c0.1,5.8,0.6,11.5-0.9,17.3c-1,3.6,0.8,6.5,5.3,6.8c4.4,0.3,7-0.9,6.4-5.9C335.6,87.3,335.9,84.5,335.9,83.5z M249,201.2
		c3.8,0,7.6-0.2,11.4,0c4.5,0.3,4.2-2.6,4.3-5.7c0.1-3.2-0.7-5-4.5-4.9c-6.7,0.2-13.4,0.2-20.1-0.1c-4.4-0.2-5.1,2.1-5.2,5.8
		c-0.1,4,1.8,5,5.4,4.8C243.2,201,246.1,201.2,249,201.2z M214.1,136.7C214.1,136.7,214.1,136.8,214.1,136.7
		c-3.4,0.1-6.8,0.2-10.1,0c-3.9-0.3-5.1,1.6-5.2,5.2c-0.1,3.7,1.1,5.4,5,5.3c6.5-0.2,13-0.3,19.6,0c4.5,0.2,4.9-2.2,5-5.9
		c0.1-4.3-2.1-4.8-5.5-4.6C219.9,136.8,217,136.7,214.1,136.7z M177.4,201.3C177.4,201.3,177.4,201.3,177.4,201.3
		c3.8-0.1,7.6-0.2,11.4-0.1c4,0.1,4-2.5,4-5.3c0-3-0.2-5.3-4.2-5.1c-6.7,0.2-13.4,0.2-20.1,0.2c-3.8,0-5.5,1.2-5.5,5.4
		c0,4.5,1.9,5.3,5.7,5C171.6,201.1,174.5,201.3,177.4,201.3z M106.4,201.3c2.9,0,5.8-0.2,8.7,0c4,0.3,6.2-0.5,6.3-5.4
		c0-5.3-3-5.1-6.6-5.1c-5.6,0.1-11.2,0.2-16.8-0.1c-4.4-0.2-6.5,1-6.5,5.9c0,5.1,3,4.6,6.1,4.5C100.6,201.3,103.5,201.3,106.4,201.3
		z M178.2,182.3c0,0,0-0.1,0-0.1c3.6,0,7.2-0.1,10.7,0c4,0.1,4-2.5,4-5.4c0-2.9-0.1-5.3-4.1-5.1c-6.7,0.2-13.4,0.2-20.1,0
		c-4-0.1-5.5,1.3-5.6,5.4c-0.1,4.4,1.8,5.4,5.6,5.2C171.9,182.1,175,182.3,178.2,182.3z M106.8,172C106.8,172,106.8,171.9,106.8,172
		c-3.4-0.1-6.7,0.1-10.1-0.1c-4.3-0.3-4.5,2.5-4.7,5.6c-0.2,3.3,0.9,5,4.5,5c6.3-0.1,12.5-0.1,18.8,0c3.7,0.1,6.4,0,6.4-5.1
		c0-4.9-2.2-5.6-6.2-5.3C112.6,172.1,109.7,172,106.8,172z M101.6,379.4C101.6,379.3,101.6,379.3,101.6,379.4c-3.4,0-6.7-0.1-10.1,0
		c-1.7,0.1-3.8-0.7-4.7,1.5c-1,2.2,0.5,3.8,1.7,5.4c1.9,2.5,4.2,3.8,7.4,3.7c4.9-0.2,9.9-0.1,14.8,0.1c4.5,0.2,6.4-1.4,6.4-6.1
		c0.1-5-2.9-4.7-6.1-4.6C107.9,379.4,104.8,379.4,101.6,379.4z M264.4,151.5C264.4,151.5,264.4,151.5,264.4,151.5
		c0-3.3-0.2-6.7,0-10c0.3-4.1-1.9-4.7-5.4-4.8c-3.7,0-5.3,1.2-5.2,5.1c0.2,6.2,0.3,12.5,0,18.7c-0.2,4.5,1.6,5.7,5.9,5.8
		c4.8,0.1,4.8-2.7,4.7-6.1C264.3,157.3,264.4,154.4,264.4,151.5z M394.8,170.5c0,0,0,0.1,0,0.1c-3.3,0-6.7,0.1-10,0
		c-3.3-0.1-5.5,0.3-5.5,4.6c0,4,1.1,5.8,5.3,5.6c6.5-0.2,12.9-0.4,19.4-0.2c4.4,0.1,5-2,5.1-5.8c0.1-4.4-2.3-4.5-5.5-4.4
		C400.6,170.6,397.7,170.5,394.8,170.5z M373.7,186.1c-0.1,0-0.3,0-0.4,0c0-3.6-0.1-7.2,0-10.8c0.1-4.1-2.1-4.7-5.6-4.6
		c-3.4,0.1-4.8,1.2-4.7,4.8c0.3,6.3,0.4,12.6,0.2,18.9c-0.1,4.2,1,6,5.7,5.9c4.6-0.1,5.1-2.5,4.9-6
		C373.6,191.5,373.7,188.8,373.7,186.1z M360.6,351.5c0-0.1,0-0.1,0-0.2c3.6,0,7.2-0.1,10.7,0c3.6,0.2,5.3-0.8,5.1-4.9
		c-0.2-3.8-1.1-5.9-5.4-5.6c-6.7,0.4-13.4,0.5-20.1,0.5c-3.8,0-5.6,0.9-5.6,5.3c0,4.6,2.2,5.1,5.8,4.9
		C354.3,351.3,357.4,351.5,360.6,351.5z M182.4,151.7c-0.1,0-0.1,0-0.2,0c0,3.1,0.2,6.3,0,9.4c-0.3,3.8,1.3,5.1,5.1,5.1
		c3.6,0,5.5-0.9,5.4-4.9c-0.1-6.3-0.1-12.6,0.1-18.8c0.1-3.6-0.4-6-5-5.9c-4.2,0.1-5.6,1.7-5.4,5.7
		C182.5,145.4,182.4,148.6,182.4,151.7z M323.2,443c4.3-0.5,9,0.6,13.7-1c3.6-1.3,3.9-3.9,3.5-7c-0.4-3.3-3-2.8-5.1-2.8
		c-6.3,0-12.6,0.3-18.9,0.1c-4.2-0.1-6.7,0.4-6.6,5.7c0,5.2,2.7,5.2,6.4,5C318.4,442.9,320.6,443,323.2,443z M356.2,383.1
		c0-6.7-0.2-13.4,0.1-20.1c0.2-4.4-1.7-5.2-5.6-5.1c-4,0.1-5,1.8-4.7,5.4c0.4,6.7,0.8,13.4,0.7,20.1c0,4,1.1,5.6,5.3,5.4
		C356.2,388.7,357.8,387.1,356.2,383.1z M388.5,150.4c-0.1,0-0.1,0-0.2,0c0-3.1-0.1-6.3,0-9.4c0.2-3.5-0.8-5.4-4.9-5.3
		c-3.9,0.1-5.8,1.1-5.6,5.4c0.4,6,0.4,12.1,0.5,18.1c0,3.5,0.7,5.8,5.2,5.8c4.6,0,5.1-2.3,4.9-5.9
		C388.4,156.3,388.5,153.3,388.5,150.4z M281.6,185.9C281.6,185.9,281.6,185.9,281.6,185.9c-0.1-2.9-0.2-5.8,0-8.7
		c0.3-3.9-1.1-5.7-5.4-5.6c-3.9,0.1-5.1,1.6-5,5.2c0.2,6.3,0.2,12.6,0,18.8c-0.2,4,1.3,5.7,5.4,5.6c4.3-0.1,5.4-2.2,5.1-6
		C281.5,192.2,281.6,189.1,281.6,185.9z M229.1,186.5C229.2,186.5,229.2,186.5,229.1,186.5c0-3.4-0.1-6.7,0.1-10.1
		c0.3-4-1.8-4.8-5.3-4.8c-3.7,0-5.4,1-5.3,4.9c0.2,6.3,0.2,12.5,0,18.8c-0.1,3.6,0.3,6,4.9,5.9c4.5,0,6-1.7,5.6-6
		C228.9,192.4,229.1,189.5,229.1,186.5z M52.5,300.2c-0.1,0-0.2,0-0.3,0c0,3.6,0.2,7.2-0.1,10.8c-0.3,3.9,1.4,5.1,5,5.1
		c3.8,0.1,5.1-1.3,5.2-5.1c0-6.5,0.4-13,0.9-19.5c0.3-4-0.4-6.3-5.3-6.3c-4.9,0-5.6,2.4-5.4,6.3C52.6,294.4,52.5,297.3,52.5,300.2z
		 M209,301.1c0-3.4-0.2-6.7,0.1-10.1c0.3-3.7-0.9-5.3-4.8-5.3c-3.9,0-5.7,1.3-5.6,5.4c0.2,6.5,0.2,13-0.1,19.5
		c-0.2,4.1,1.3,5.5,5.4,5.6c4.4,0.1,5.4-1.9,5.2-5.7C208.8,307.4,209,304.3,209,301.1z M87.6,337.3c-0.1,0-0.1,0-0.2,0
		c0,3.3,0.1,6.7,0,10c-0.2,3.3,0.1,5.6,4.4,5.5c3.7-0.1,5.9-0.5,5.8-5c-0.1-6.7,0.4-13.4,0.4-20.1c0-2.6,1.2-6.3-3.7-6.1
		c-4,0.2-7.7,0.4-6.8,6.2C87.9,331,87.6,334.1,87.6,337.3z M285.3,147.2c0-0.1,0-0.1,0-0.2c3.6,0,7.1-0.1,10.7,0
		c4.1,0.1,3.9-2.6,3.9-5.4c0-3-0.3-5.2-4.2-5.1c-6.7,0.3-13.4,0.3-20.1,0.1c-3.9-0.1-5.1,1.5-5.1,5.1c0,3.9,1.2,5.8,5.5,5.4
		C279,147,282.2,147.2,285.3,147.2z M280.6,116.6C280.6,116.6,280.6,116.6,280.6,116.6c0-3.1-0.3-6.3,0-9.4c0.3-3.9-1.3-5.1-5-5
		c-3.6,0-5.4,1.1-5.3,5c0.2,6,0.2,12.1,0,18.1c-0.1,4.1,0.9,6,5.6,6c4.8,0,4.9-2.6,4.7-6C280.5,122.4,280.6,119.5,280.6,116.6z
		 M322.6,315.8c4.4-0.2,7.8-0.6,11.1-0.5c4.1,0.2,5.3-1.4,5.3-5.4c0.1-4.8-2.4-4.8-5.9-4.7c-5.8,0.2-11.6,0-17.4,0
		c-3.6,0-7-0.6-6.9,5.2c0.1,5.4,2.8,5.6,6.8,5.4C318.3,315.7,321,315.8,322.6,315.8z M317,152c-0.1,0-0.3,0-0.4,0
		c0-3.6-0.1-7.2,0-10.8c0.2-3.9-1.8-4.8-5.4-4.8c-4,0-5,1.6-4.9,5.3c0.2,6.1,0.4,12.1,0.1,18.2c-0.2,4.5,1.7,5.9,5.9,5.8
		c4.6,0,4.8-2.8,4.6-6.3C316.9,157,317,154.5,317,152z M175.4,433.6C175.4,433.6,175.4,433.6,175.4,433.6c-3.4,0-6.7-0.1-10.1,0
		c-2.1,0.1-4.7-0.8-5.2,2.6c-0.5,3.2,1,4.8,3.8,6.2c6.6,3.2,13.6,1.4,20.4,2.1c4.6,0.4,6.2-1,6.3-5.9c0.1-5.4-3-5-6.5-4.9
		C181.2,433.7,178.3,433.6,175.4,433.6z M66,185.8c0.1,0,0.2,0,0.2,0c0-3.1-0.2-6.3,0-9.4c0.2-3.4-0.9-4.9-4.5-4.8
		c-3.2,0.1-5.7,0-5.6,4.4c0.1,6.2-0.3,12.5-0.7,18.8c-0.2,3.8,0.1,6.4,5.1,6.5c4.7,0,5.8-2,5.6-6.1C65.8,192,66,188.9,66,185.8z
		 M321.2,101.5C321.2,101.6,321.2,101.6,321.2,101.5c-3.3,0.1-6.7,0.3-10,0.1c-3.8-0.2-5,1.4-5,5.1c0,3.7,1.1,5.3,5,5.1
		c6.5-0.3,12.9-0.5,19.4-0.5c3.9,0,5.5-1.1,5.5-5.3c0-4.3-2.2-4.7-5.5-4.5C327.5,101.7,324.4,101.5,321.2,101.5z M429.4,299.2
		c-0.2,0-0.4,0-0.5,0c0-3.6-0.2-7.2,0-10.7c0.2-4.1-2-4.7-5.4-4.7c-3.5,0-5.5,0.8-5.1,4.9c0.6,6.5,0.9,12.9,1,19.4
		c0,4,0.8,6,5.6,5.9c4.8-0.1,4.8-2.6,4.5-6.1C429.2,305,429.4,302.1,429.4,299.2z M363,414.9c0,0.1,0,0.2,0,0.3
		c-3.4,0-6.7,0.2-10.1,0c-4.2-0.3-6,1.1-5.9,5.7c0.1,4.5,2.3,5.1,6,4.8c2.7-0.2,5.4-0.4,8-0.1c5.9,0.9,10.2-2.2,14.6-5.3
		c1.4-1,2.5-2,2-3.8c-0.6-2-2.4-1.6-3.9-1.6C370.1,414.9,366.6,414.9,363,414.9z M360.1,331.9c0-0.2,0-0.3,0-0.5
		c3.4,0,6.7-0.1,10.1,0c3.4,0.1,5.4-0.5,5.3-4.7c-0.1-3.9-1-5.7-5.3-5.4c-6.2,0.4-12.5,0.3-18.8,0.2c-3.6,0-6.3-0.1-6.2,5.1
		c0.2,4.8,2.3,5.6,6.2,5.3C354.2,331.7,357.2,331.9,360.1,331.9z M264.3,82.2c0-2.9-0.1-5.8,0-8.7c0.2-3.5-0.6-5.5-4.7-5.4
		c-3.8,0.1-6,0.9-5.8,5.3c0.2,5.6,0.2,11.2,0,16.8c-0.1,3.8,0.2,6.3,5.2,6.3c4.9,0,5.6-2.2,5.3-6.2
		C264.2,87.6,264.3,84.9,264.3,82.2z M445.5,184.4c-0.1,0-0.2,0-0.4,0c0-3.1-0.3-6.3,0.1-9.4c0.5-4.1-1.9-6.4-5.1-6.2
		c-3.1,0.2-6,2.1-5.4,6.7c0.8,6,0.9,12.1,0.9,18.1c0,3.6,0.9,5.1,4.9,5.1c4.4,0,5.4-1.8,5.1-5.7
		C445.3,190.2,445.5,187.3,445.5,184.4z M234.9,82.1C234.9,82.1,234.8,82.1,234.9,82.1c-0.1,3.1,0.2,6.3-0.1,9.4
		c-0.4,4.1,1.7,4.8,5.2,4.8c3.5,0,5.4-0.9,5.2-4.9c-0.2-6-0.1-12,0.1-18.1c0.1-3.6-1-5.3-4.9-5.3c-3.9,0-5.9,1.1-5.5,5.4
		C235.1,76.3,234.9,79.2,234.9,82.1z M391.9,110.8c0-0.1,0-0.1,0-0.2c2.7,0,5.4,0.2,8.1-0.1c2.9-0.3,7.4,1.6,7.1-4.2
		c-0.2-5.2-3.5-6.1-7.9-5.8c-5.4,0.3-10.7,0.6-16.1,0.5c-3.9-0.1-5.6,0.9-5.5,5.3c0.1,4.3,2.3,4.7,5.6,4.6
		C386.1,110.7,389,110.8,391.9,110.8z M339,337c-0.1,0-0.1,0-0.2,0c0-3.6-0.2-7.2,0.1-10.8c0.3-4.2-2-4.7-5.4-4.7
		c-3.7,0-5.4,1.1-5.2,5c0.4,6.5,0.5,13,0.6,19.5c0,3.4,0,6,4.9,5.9c4.7-0.1,5.7-2.2,5.3-6.2C338.8,342.8,339,339.9,339,337z
		 M157.2,117.1c0.1,0,0.2,0,0.2,0c0-2.9-0.1-5.8,0-8.8c0.1-3.4-0.4-5.5-4.7-5.4c-4.1,0.1-5.7,1.5-5.6,5.6c0.1,5.8-0.1,11.7-0.2,17.5
		c-0.1,3.1-0.2,5.6,4.4,5.6c4.2-0.1,6.3-1.2,5.9-5.7C157,122.9,157.2,120,157.2,117.1z M107.1,113c0,0,0,0.1,0,0.1
		c3.8,0,7.6,0,11.4,0c3,0,3.9-1.7,3.8-4.3c-0.1-2.1,0.8-5.3-2.3-5.5c-6.9-0.4-13.9-0.8-20.7,0c-3,0.3-6.3,3.6-6.1,7.1
		c0.2,3.9,4.2,2.1,6.5,2.4C102.2,113.2,104.7,113,107.1,113z M92.1,152.2c-0.1,0-0.2,0-0.3,0c0,3.1,0.2,6.3,0,9.4
		c-0.2,3.4,0.9,4.9,4.5,4.9c3.4,0,5.6-0.5,5.6-4.6c0-6.1,0.3-12.1,0.6-18.2c0.1-3.3,0.4-6.1-4.6-6.1c-4.5,0-6.1,1.5-5.8,5.8
		C92.2,146.3,92.1,149.2,92.1,152.2z M66.8,321.9c0,0,0-0.1,0-0.1c-2.7,0-5.4-0.1-8,0c-2.1,0.1-4.9-1.1-6.1,1.3
		c-1.4,2.7,0.7,5.1,1.7,7.5c1,2.3,3.3,1.9,5.3,1.9c5.1,0.1,10.3-0.2,15.4,0.2c4.5,0.3,6.3-1,6.3-5.9c0.1-5.4-3.1-4.9-6.5-4.9
		C72.2,321.9,69.5,321.9,66.8,321.9z M82.3,301.1c0.1,0,0.2,0,0.3,0c0-3.6-0.2-7.2,0-10.8c0.2-3.7-1.5-4.7-4.8-4.6
		c-3,0.1-5.2,0.3-5.2,4.3c0,6.5-0.6,13-0.9,19.5c-0.2,3.5-0.7,6.7,4.7,6.7c4.9,0.1,6.3-2,5.9-6.4C82.1,307,82.3,304,82.3,301.1z
		 M345.2,299.7c0.1,0,0.1,0,0.2,0c0,3.4,0.2,6.7-0.1,10.1c-0.4,4.4,1.7,5.2,5.5,5.2c3.8,0,5.2-1.3,5-5.1c-0.4-6.5-0.5-13-0.5-19.5
		c0-3.6-0.4-5.8-5-5.7c-4.3,0.1-5.4,1.7-5.1,5.6C345.4,293.4,345.2,296.6,345.2,299.7z M197.9,374.7c-0.1,0-0.1,0-0.2,0
		c0,3.4,0.1,6.7,0,10c-0.1,2.9-0.3,5.7,3.8,5.3c3.2-0.3,6.9,0.3,6.6-5.1c-0.4-6.5-0.1-13,0-19.4c0-3.5,0.4-6.5-4.9-6.4
		c-5,0-5.4,2.4-5.3,6.2C198,368.4,197.9,371.5,197.9,374.7z M178.5,63.2c0-0.1,0-0.1,0-0.2c3.8,0,7.6,0,11.5,0
		c2.6,0,3.6-1.5,3.5-3.9c0-2.1,1-5.6-1.7-5.8c-8.6-0.4-17.5-2.2-25.6,2.8c-1.9,1.2-1.6,3.1-1.4,4.8c0.3,2.1,2.1,2.1,3.6,2.1
		C171.7,63.3,175.1,63.2,178.5,63.2z M398,388c0-0.1,0-0.2,0-0.2c3.8,0,7.6,0,11.4,0c4.3,0,5-2.7,5-6.3c0-4.1-2.4-3.9-5.3-3.8
		c-6.5,0.2-13,0.5-19.5,0.2c-4.9-0.3-5.7,1.8-6.1,6.2c-0.4,5.5,3.3,3.6,5.7,3.8C392.1,388.2,395.1,388,398,388z M398.5,367.7
		c0-0.1,0-0.1,0-0.2c3.6,0,7.2-0.2,10.7,0c3.8,0.2,5.1-1.2,4.9-5.1c-0.2-3.6-1.3-5.3-5.2-5.1c-6.7,0.3-13.4,0.3-20.1,0.3
		c-3.4,0-5.8,0-5.9,4.8c0,4.9,2.2,5.6,6.1,5.3C392.3,367.6,395.4,367.7,398.5,367.7z M356.5,95.5c0-0.2,0-0.3,0-0.5
		c3.4,0,6.7-0.2,10.1,0c4,0.3,4.8-1.7,4.7-5.3c-0.1-3.5-1.2-4.7-4.7-4.6c-6.5,0.3-13,0.4-19.5,0.1c-4.2-0.2-5.5,1.5-5.4,5.5
		c0,4,1.9,5,5.5,4.7C350.2,95.4,353.4,95.5,356.5,95.5z M318.7,337.4c-0.1,0-0.2,0-0.3,0c0-3.8-0.2-7.6,0.1-11.4c0.3-4-2-4.2-5-4.3
		c-3.2,0-5.1,0.8-4.9,4.5c0.3,6.9,0.4,13.9,0.2,20.8c-0.1,3.5,0.7,5.3,4.8,5.3c4.2,0,5.5-1.6,5.2-5.6
		C318.5,343.7,318.7,340.5,318.7,337.4z M250.8,286.1C250.8,286.1,250.8,286,250.8,286.1c-3.6-0.1-7.2,0.1-10.8-0.2
		c-4-0.3-5,1.3-5,5c0,3.7,1.1,5.3,5,5.2c6.7-0.2,13.5-0.3,20.2-0.1c4.1,0.1,5.5-1.3,5.5-5.4c0-4.2-2.1-4.8-5.5-4.6
		C257,286.2,253.9,286.1,250.8,286.1z M320.3,130.2c0,0,0-0.1,0-0.1c3.8,0,7.6-0.1,11.4,0c3.7,0.2,4.3-1.8,4.4-5
		c0-3.3-0.7-5-4.4-4.8c-6.5,0.2-13,0.4-19.4,0.1c-4.8-0.2-5.9,1.6-6,6.2c-0.1,5.4,3.1,4.2,6.1,4.1
		C315,130.6,317.6,130.4,320.3,130.2z M71.4,166.1c0,0,0,0.1,0,0.1c3.4,0,6.8-0.2,10.1,0.1c4.3,0.3,3.9-2.7,4.2-5.3
		c0.3-2.8-0.4-4.9-3.8-5c-6.1-0.1-12.1-0.5-18.2-0.4c-5.1,0.1-6,4.9-6.3,8.2c-0.2,3.4,3.7,1.9,5.9,2.2
		C66,166.3,68.7,166.1,71.4,166.1z M117.4,338.1C117.4,338.1,117.5,338.1,117.4,338.1c0.1-3.8-0.1-7.6,0.2-11.4
		c0.3-3.8-1.6-4.6-4.8-4.5c-2.9,0.1-5.2,0.2-5.2,4.2c0,6.7-0.2,13.5-0.7,20.2c-0.3,4,0.2,6.3,5.1,6.4c4.9,0.1,5.7-2.1,5.4-6.1
		C117.2,343.9,117.4,341,117.4,338.1z M145.6,300.5c-0.1,0-0.1,0-0.2,0c0,3.4,0.1,6.7,0,10.1c-0.1,3.2,0,5.6,4.4,5.7
		c3.9,0,5.7-1,5.5-5.3c-0.3-6.5-0.1-13,0.1-19.5c0.1-3.5,0-5.9-4.7-6.1c-5.2-0.2-5.2,2.7-5.1,6.4
		C145.7,294.6,145.6,297.6,145.6,300.5z M214.7,86.8c0,0.1,0,0.3,0,0.4c-3.8,0-7.6,0-11.4,0c-4.2-0.1-3.6,2.9-3.8,5.6
		c-0.2,3.1,0.9,4.5,4.2,4.4c6.5-0.3,13-0.7,19.4-0.6c4.1,0.1,5.3-1.5,5.3-5.5c0-4.5-2.6-4.3-5.7-4.2
		C220.1,86.8,217.4,86.8,214.7,86.8z M160.4,411.3c-0.1,0-0.1,0-0.2,0c0,3.6,0.2,7.2-0.1,10.8c-0.3,3.9,1.3,5,5,5
		c3.6,0,5.4-0.7,5.3-4.8c-0.1-6.5,0.1-13,0.4-19.5c0.2-3.8-0.2-6.3-5.2-6.4c-4.9,0-5.6,2.2-5.3,6.2
		C160.5,405.4,160.4,408.4,160.4,411.3z M228.1,374.4C228.1,374.4,228.1,374.4,228.1,374.4c0-3.6-0.2-7.2,0-10.7
		c0.2-3.6-1.4-4.6-4.7-4.6c-3.4,0-5.5,0.6-5.3,4.7c0.2,6.9,0.2,13.9-0.1,20.8c-0.2,4.2,1.7,5.3,5.6,5.3c4.2,0,4.8-2.1,4.6-5.5
		C227.9,381.1,228.1,377.8,228.1,374.4z M124,374.2c-0.2,0-0.3,0-0.5,0c0,3.8,0.2,7.6,0,11.4c-0.2,3.9,2.2,4.3,5.1,4.4
		c3.2,0.1,5.1-0.5,5.1-4.4c-0.1-6.9,0-13.9,0.3-20.8c0.2-3.7-0.5-5.7-5-5.8c-4.5,0-5.3,2-5,5.7C124.1,367.9,124,371.1,124,374.2z
		 M143.9,373.6c-0.1,0-0.1,0-0.2,0c0,3.8,0.2,7.6,0,11.4c-0.2,3.8,1.4,5.2,5.1,5.1c3.5-0.1,5.4-1.1,5.3-5
		c-0.1-6.7-0.2-13.4,0.1-20.1c0.2-4.1-0.8-6-5.5-6c-4.6,0.1-5.1,2.3-4.9,5.9C144,367.8,143.9,370.7,143.9,373.6z M180.8,411.9
		c0,0-0.1,0-0.1,0c0,3.4,0.2,6.8-0.1,10.1c-0.3,3.8,0.9,5.2,4.8,5.1c3.6,0,5.3-0.9,5.3-4.9c-0.1-6.7-0.1-13.5,0.4-20.2
		c0.3-4.1-1-5.7-5.1-5.8c-4.2-0.2-5.6,1.5-5.2,5.5C181,405.1,180.8,408.5,180.8,411.9z M352.3,116.3c0,0-0.1,0-0.1,0
		c0-3.4-0.2-6.8,0.1-10.1c0.3-4-1.6-4.9-5.2-4.8c-3.6,0-5.5,0.9-5.2,4.9c0.3,6.1,0.5,12.1,0.4,18.2c-0.1,3.8,0.7,5.7,5.1,5.7
		c4.5,0,5.3-1.9,5-5.7C352.2,121.7,352.3,119,352.3,116.3z M85.1,186.2c0,0,0.1,0,0.1,0c0.2-2.9,0.3-5.8,0.6-8.7
		c0.3-3.3,0.1-5.7-4.3-5.8c-4.2-0.1-6.2,1-6,5.6c0.2,6.1,0,12.1-0.3,18.2c-0.2,3.6,0.1,5.9,4.8,5.9c4.5,0,5.3-2,5.1-5.8
		C85,192.5,85.1,189.4,85.1,186.2z M214,78.5c0-0.1,0-0.2,0-0.3c3.6,0,7.2,0,10.7,0c4.5,0.1,4.1-3.1,4.1-6c0.1-3.3-1.3-4-4.5-3.8
		c-6.2,0.5-12.5,0.5-18.8,0.5c-3.4,0-6-0.1-6,4.7c0,4.6,2.1,5.2,5.7,4.9C208.2,78.3,211.1,78.5,214,78.5z M137.9,117.8
		c0.2,0,0.4,0,0.5,0c0-3.4-0.1-6.7,0-10.1c0.2-3.6-1.5-4.7-4.9-4.6c-3.3,0.1-5.7,0.5-5.5,4.8c0.2,6,0,12.1-0.1,18.2
		c-0.1,3.1-0.2,5.6,4.3,5.6c4.5,0,6-1.6,5.6-5.9C137.7,123.2,137.9,120.5,137.9,117.8z M282.3,301C282.3,301,282.3,301,282.3,301
		c-0.1-3.1-0.2-6.2-0.1-9.4c0.1-3.5-0.2-5.9-4.9-5.8c-4.2,0.1-5.4,1.5-5.2,5.5c0.3,6.2,0.2,12.5,0,18.7c-0.1,3.8,0.3,6.2,5.3,6.2
		c5.3,0,4.9-3.1,4.8-6.6C282.3,306.8,282.3,303.9,282.3,301z M254.8,337.4C254.8,337.4,254.8,337.4,254.8,337.4
		c0,3.6,0.3,7.2,0,10.7c-0.3,4.3,2.1,4.6,5.4,4.6c3.4,0.1,4.9-1,4.8-4.6c-0.2-6.7-0.3-13.4-0.2-20.1c0.1-3.6-0.4-5.8-5-5.7
		c-4.4,0.1-5.3,1.9-5,5.7C255,331.1,254.8,334.3,254.8,337.4z M407.9,150.1c-0.1,0-0.2,0-0.4,0c0-3.1-0.2-6.3,0-9.4
		c0.3-3.6-0.8-5.3-4.8-5.3c-3.9,0-5.2,1.4-5,5.2c0.3,6.1,0.4,12.1,0.3,18.2c0,3.5-0.1,6.1,4.8,6c4.3-0.2,5.4-1.9,5.1-5.9
		C407.7,156,407.9,153.1,407.9,150.1z M213.7,322.4C213.7,322.4,213.7,322.3,213.7,322.4c-3.4,0-6.7,0.1-10.1-0.1
		c-3.7-0.2-5.8,0.5-5.7,5c0.1,4.1,1.4,5.6,5.5,5.4c6-0.3,12.1-0.2,18.2,0c3.8,0.1,6.8,0.3,6.8-5.4c-0.1-5.3-3-5-6.5-4.9
		C219.1,322.4,216.4,322.4,213.7,322.4z M425.2,182.4c0-1.1-0.2-4.3,0.1-7.4c0.4-4-1.5-4.8-5.1-4.8c-3.9,0-5,1.5-4.9,5.2
		c0.3,6,0.4,12.1,0.3,18.1c-0.1,3.7,0.6,5.8,5.1,5.7c4.7,0,5.8-2.1,5.3-6.2C425.7,190.2,425.6,187.3,425.2,182.4z M282.2,373.9
		C282.2,373.9,282.1,373.9,282.2,373.9c-0.1-3.6-0.3-7.2,0-10.7c0.3-4.1-2.2-4-5.1-4c-3.1,0-5.2,0.4-5,4.3
		c0.2,6.7,0.2,13.4,0.1,20.1c-0.1,3.5,0.1,5.9,4.8,5.9c4.8,0,5.6-2.2,5.3-6.2C282,380.2,282.2,377.1,282.2,373.9z M321.8,200.5
		c0,0,0-0.1,0-0.1c3.6,0,7.2-0.2,10.8,0.1c4.1,0.3,4.7-1.8,4.7-5.3c0-3.4-0.9-4.9-4.5-4.8c-6.5,0.2-13,0.2-19.5,0.1
		c-3.6-0.1-5.9,0.4-5.9,5c0,4.4,1.8,5.4,5.7,5.2C316,200.3,318.9,200.5,321.8,200.5z M177.7,112.5c0,0,0-0.1,0-0.1
		c3.6,0,7.2-0.2,10.7,0c3.7,0.2,4.5-1.5,4.5-4.8c0-3.2-0.6-5-4.4-4.9c-6.5,0.2-13,0.3-19.5,0.1c-4-0.1-5.6,1-5.6,5.2
		c0,4.3,2.3,4.7,5.5,4.5C171.9,112.4,174.8,112.5,177.7,112.5z M358,155.1c0,0,0,0.1,0,0.1c-3.6,0-7.2,0.2-10.8,0
		c-3.5-0.2-4.8,1-4.7,4.6c0.1,3.5,0.7,5.5,4.8,5.3c6.5-0.3,13-0.3,19.6-0.1c4.1,0.2,5.5-1.3,5.5-5.4c0-4.4-2.3-4.7-5.6-4.5
		C363.9,155.2,360.9,155.1,358,155.1z M178,121.2c0,0.1,0,0.1,0,0.2c-3.4,0-6.7,0.2-10.1,0c-4-0.3-4.8,1.8-4.8,5.3
		c-0.1,3.6,1.4,4.7,4.8,4.5c6.5-0.2,13-0.4,19.5-0.1c4.1,0.2,5.5-1.2,5.5-5.3c0-4.3-2.1-4.8-5.5-4.6
		C184.3,121.3,181.2,121.2,178,121.2z M147,186.9C146.9,186.9,146.9,186.9,147,186.9c-0.1,3.4,0.1,6.7-0.1,10.1
		c-0.3,3.9,1.8,4.4,4.9,4.3c3.1-0.1,5.2-0.4,5.1-4.3c-0.1-6.5,0-13,0.1-19.5c0.1-3.5-0.2-6-4.9-5.8c-4.3,0.1-5.4,2-5.2,5.8
		C147.1,180.7,147,183.8,147,186.9z M199.6,186.6C199.6,186.6,199.5,186.6,199.6,186.6c-0.1,3.1,0.1,6.3-0.1,9.4
		c-0.3,3.5,0.4,5.5,4.6,5.3c3.6-0.1,5.3-1,5.2-5c-0.2-6.7-0.2-13.4,0.1-20.1c0.1-3.6-1.3-4.6-4.7-4.6c-3.7,0-5.3,1.1-5.1,4.9
		C199.8,179.9,199.6,183.3,199.6,186.6z M173,152.1C173,152.1,173,152.1,173,152.1c0.1-3.6-0.1-7.2,0.1-10.7
		c0.2-3.5-1.2-4.7-4.7-4.7c-3.5,0.1-5.5,0.8-5.3,4.9c0.2,6.5,0.2,13-0.1,19.4c-0.1,3.6,0.7,5.3,4.7,5.3c4.2,0,5.6-1.5,5.3-5.5
		C172.8,157.9,173,155,173,152.1z M322.1,181.3c0,0,0-0.1,0-0.1c3.4,0,6.7-0.2,10,0c3.7,0.2,5.1-1.2,5.1-5c0-3.7-1.1-5.2-5-5
		c-6.2,0.3-12.5,0.3-18.8,0.2c-3.9-0.1-6.2,0.4-6.1,5.3c0.1,4.9,2.7,4.7,6,4.6C316.3,181.2,319.2,181.3,322.1,181.3z M249.6,62.4
		c0,0,0-0.1,0-0.1c3.6,0,7.2-0.2,10.7,0c4,0.2,4.1-2.3,4.1-5.2c0.1-3.1-1-4.4-4.3-4.3c-6.7,0.2-13.4,0.3-20.1,0.1
		c-3.7-0.1-5.2,1-5.2,4.9c-0.1,4.1,1.9,4.9,5.3,4.7C243.3,62.3,246.4,62.4,249.6,62.4z M139.1,416.2
		C139.1,416.2,139.1,416.2,139.1,416.2c-3.3,0-6.7-0.1-10,0c-1.7,0-3.9-0.4-4.5,1.9c-0.5,1.9,1.5,2.4,2.6,3.5
		c5.9,5.7,13.1,5.6,20.6,5.4c3.9-0.1,6.2-0.6,6.2-5.4c0-4.8-2.2-5.7-6.2-5.4C144.9,416.4,142,416.2,139.1,416.2z M375.4,299.9
		c-0.1,0-0.2,0-0.3,0c0-3.6-0.2-7.2,0.1-10.7c0.3-4.2-2-4.6-5.4-4.6c-3.4,0-4.8,1.2-4.7,4.7c0.3,6.7,0.6,13.4,0.5,20.1
		c-0.1,4.1,1.3,5.4,5.4,5.4c4.3,0,4.7-2.1,4.5-5.5C375.3,306.2,375.4,303.1,375.4,299.9z M429.2,164c0-0.1,0-0.3,0-0.4
		c3.1,0,6.3-0.1,9.4,0c3.1,0.1,5.8,0,5.5-4.5c-0.3-4-2.1-5.4-6-5.2c-6,0.3-12.1,0.5-18.1,0.3c-3.9-0.1-5.6,0.9-5.6,5.2
		c0,4.3,2.1,4.7,5.5,4.6C422.9,163.9,426,164,429.2,164z M244.7,151.3C244.7,151.3,244.7,151.3,244.7,151.3c0-3.4-0.2-6.7,0-10.1
		c0.2-3.7-1.6-4.5-4.9-4.5c-3.2,0.1-5.2,0.6-5.1,4.4c0.2,6.5,0.2,13,0,19.5c-0.2,4.1,1.3,5.6,5.4,5.5c4.1,0,4.9-2.1,4.7-5.5
		C244.6,157.6,244.7,154.4,244.7,151.3z M356.7,146C356.7,146,356.7,146,356.7,146c3.4,0,6.7-0.2,10.1,0c3.5,0.2,5.4-0.8,5.3-4.8
		c-0.1-3.7-1.3-5.3-5.1-5.1c-6.3,0.3-12.5,0.2-18.8,0.1c-3.5-0.1-5.9,0.2-5.9,4.8c0.1,4.4,1.8,5.4,5.7,5
		C350.9,145.8,353.8,146,356.7,146z M107.9,121.9C107.9,121.9,107.9,121.9,107.9,121.9c-3.6-0.1-7.2,0.1-10.7-0.1
		c-3.8-0.3-4.5,1.7-4.5,4.8c0,3.1,0.4,5.2,4.2,5.1c6.5-0.1,12.9,0,19.4,0.2c3.8,0.1,5.6-0.9,5.6-5.3c0-4.8-2.5-4.9-6-4.7
		C113.2,122,110.6,121.9,107.9,121.9z M392.9,119.9c0,0.1,0,0.1,0,0.2c-3.6,0-7.2,0.2-10.7,0c-3.7-0.2-4.4,1.7-4.3,4.9
		c0.1,3.3,1.1,4.9,4.7,4.8c6.7-0.2,13.4-0.2,20.1-0.1c3.8,0.1,4.9-1.5,4.9-5.2c0-4.1-1.8-4.9-5.3-4.7
		C399.1,120.1,396,119.9,392.9,119.9z M284.8,96.2C284.8,96.2,284.8,96.2,284.8,96.2c3.4-0.1,6.7-0.3,10.1,0c4,0.3,4.9-1.4,4.9-5.1
		c0-4-1.6-4.9-5.2-4.7c-6.3,0.3-12.6,0.3-18.8,0.2c-3.5-0.1-5.4,0.6-5.5,4.7c-0.1,4.5,2.1,5.3,5.8,5C279,96.1,281.9,96.2,284.8,96.2
		z M299.8,116.4c0,0-0.1,0-0.1,0c0-3.4-0.2-6.7,0-10.1c0.2-3.7-1.5-4.5-4.9-4.4c-3.3,0.1-5,1-4.9,4.6c0.2,6.5,0.3,13,0.1,19.5
		c-0.1,3.8,1.2,5.1,5,5.1c4.1,0,5-1.8,4.7-5.3C299.6,122.7,299.8,119.5,299.8,116.4z M284.8,77.6c0-0.1,0-0.2,0-0.2
		c3.6,0,7.2-0.2,10.7,0c4,0.2,4.1-2.2,4.1-5.1c0.1-3.4-0.9-4.9-4.5-4.7c-6.5,0.3-13,0.4-19.4,0.3c-4.2-0.1-5.5,1.7-5.5,5.6
		c0,3.9,2.2,4.3,5.2,4.2C278.5,77.5,281.6,77.6,284.8,77.6z M127.9,186.7c-0.1,0-0.1,0-0.2,0c0,3.1,0.2,6.3-0.1,9.4
		c-0.3,3.6,0.6,5.4,4.7,5.3c3.5-0.1,5.5-0.9,5.4-4.9c-0.2-6.3-0.1-12.6,0.1-18.9c0.2-3.8-0.7-5.8-5.1-5.8c-4.7,0-5,2.5-4.9,6
		C128,180.8,127.9,183.7,127.9,186.7z M111.6,152.5c-0.2,3.1-0.3,6.3-0.5,9.4c-0.3,3.6,1.3,4.7,4.7,4.6c3.3,0,5.7-0.3,5.6-4.6
		c-0.2-6,0-12.1,0.1-18.2c0.1-3.3,0.4-6.1-4.6-6.1c-4.8,0-5.7,2.1-5.4,6.1C111.8,146.6,111.6,149.5,111.6,152.5z M144.2,87.8
		c0,0,0,0.1,0,0.1c-3.8,0-7.6,0.1-11.4,0c-4.1-0.2-4,2.6-4.2,5.3c-0.2,3.1,1.1,4.4,4.3,4.4c6.5-0.2,13-0.3,19.5-0.1
		c4.1,0.2,5.4-1.3,5.4-5.4c0.1-4.6-2.5-4.4-5.6-4.3C149.6,87.9,146.9,87.8,144.2,87.8z M301.2,186.8c0,0-0.1,0-0.1,0
		c0-3.6-0.2-7.2,0-10.8c0.2-3.6-1.4-4.6-4.8-4.5c-3.5,0-5.4,0.7-5.3,4.8c0.3,6.3,0.3,12.6,0.1,18.9c-0.2,4.1,1.1,5.5,5.3,5.7
		c4.9,0.2,4.9-2.5,4.8-6C301.1,192.2,301.2,189.5,301.2,186.8z M217.5,445.8C217.5,445.8,217.5,445.8,217.5,445.8
		c-0.1,2.9,0,5.8-0.1,8.7c0,4.9,3.9,4,6.7,4.5c3.7,0.6,3.9-1.9,3.8-4.6c0-5.1-0.2-10.3,0.1-15.4c0.2-4-1-5.5-5.2-5.5
		c-4.1,0.1-5.7,1.5-5.4,5.5C217.7,441.3,217.5,443.6,217.5,445.8z M315.9,82c-0.1,0-0.1,0-0.2,0c0-3.6-0.1-7.2,0-10.8
		c0.2-3.5-1.6-4.1-4.6-4c-2.9,0.1-5.4,0.1-5.2,4.2c0.3,6.3,0.3,12.6,0.2,18.9c-0.1,3.6,0.3,5.8,4.9,5.8c4.9,0,4.9-2.6,4.8-6
		C315.8,87.4,315.9,84.7,315.9,82z M193,83.3c0.1,0,0.1,0,0.2,0c0-3.4-0.2-6.7,0.1-10.1c0.3-3.8-1.7-4.4-4.8-4.3
		c-3.1,0-5.1,0.5-4.9,4.3c0.2,6.3,0.2,12.5-0.1,18.8c-0.2,3.6,0.7,5.3,4.8,5.2c3.8-0.1,5.2-1.5,4.9-5.2
		C192.8,89.2,193,86.3,193,83.3z M320.3,61.1c0-0.1,0-0.1,0-0.2c3.6,0,7.1,0,10.7,0c1.8,0,3.8-0.1,3.8-2.6c0-1.9,0.8-4.1-1.6-5.3
		c-2.6-1.3-5.2-2.4-8.3-2.2c-4.4,0.3-8.9,0.5-13.4,0.5c-3.6,0-5.7,0.5-5.8,5c0,4.6,2.2,5.1,5.8,4.8C314.5,61,317.4,61.1,320.3,61.1z
		 M371.6,116.3c-0.1,0-0.1,0-0.2,0c0-3.4-0.2-6.7,0-10.1c0.2-3.7-1-5.1-4.9-5c-3.6,0.1-5.4,0.8-5.1,4.8c0.3,6,0.3,12.1,0.2,18.1
		c-0.1,3.7,0.5,5.8,5,5.8c4.5,0,5.3-1.8,5-5.6C371.4,121.7,371.6,119,371.6,116.3z M228.3,116.6c0-2.7,0-5.3,0-8
		c0-3,0.9-6.3-4.3-6.2c-4.6,0-5.7,1.7-5.5,5.9c0.3,5.8,0.2,11.6,0,17.4c-0.1,3.8,0.7,5.6,5.1,5.6c4.7,0,4.9-2.5,4.8-6
		C228.2,122.4,228.3,119.5,228.3,116.6z M353.7,185.9c0,0-0.1,0-0.1,0c0-3.1-0.2-6.3,0-9.4c0.3-3.8-0.7-5.7-5.1-5.6
		c-4.6,0.1-4.9,2.5-4.7,6c0.2,6,0.3,12,0.2,18.1c-0.1,3.5,0.6,5.3,4.7,5.3c4.3,0,5.4-1.7,5-5.6C353.4,191.8,353.7,188.8,353.7,185.9
		z M336.2,150.9c-0.1,0-0.1,0-0.2,0c0-3.4-0.2-6.7,0-10.1c0.2-3.5-1-4.8-4.6-4.6c-3.1,0.2-5.8,0-5.6,4.5c0.3,6.2,0.3,12.5,0.2,18.8
		c-0.1,3.6,0.4,5.8,5,5.7c4.2-0.1,5.5-1.6,5.1-5.6C336,156.8,336.2,153.8,336.2,150.9z M142,166.4c0,0,0-0.1,0-0.1
		c3.4,0,6.7-0.2,10.1,0c4,0.3,4.7-1.8,4.8-5.3c0.1-4-1.5-5.1-5.2-4.9c-6.3,0.3-12.5,0.5-18.8,0.4c-3.6-0.1-5.1,0.9-5.2,4.8
		c-0.1,4.4,1.8,5.4,5.6,5.1C136.2,166.2,139.1,166.4,142,166.4z M142.7,137.5c0,0.1,0,0.2,0,0.2c-3.4,0-6.7,0.2-10.1-0.1
		c-4.1-0.3-4.8,1.7-4.7,5.2c0,3.4,1,4.8,4.6,4.7c6.5-0.3,13-0.4,19.5-0.1c4.4,0.2,5.1-2,5.2-5.7c0.1-4.5-2.5-4.4-5.7-4.3
		C148.5,137.7,145.6,137.5,142.7,137.5z M199.5,117.1c0,0-0.1,0-0.1,0c0,3.1,0.2,6.3,0,9.4c-0.2,3.4,0.9,4.8,4.5,4.8
		c3.5-0.1,5.5-0.7,5.3-4.8c-0.2-6-0.2-12.1,0-18.1c0.1-3.6-0.1-5.8-4.8-5.8c-4.6,0.1-5.1,2.3-4.9,5.8
		C199.6,111.3,199.5,114.2,199.5,117.1z M272.4,446c0,2.5-0.1,4.9,0,7.4c0.1,2.4-1.1,5.9,3.5,5.5c3.6-0.4,7.4-0.4,7-5.8
		c-0.3-4.7-0.2-9.4-0.1-14.1c0.1-4.2-1.4-5.8-5.9-5.7c-4.9,0.1-4.8,2.7-4.6,6.1C272.5,441.6,272.4,443.8,272.4,446z M164.5,83.3
		c-0.1,0-0.2,0-0.3,0c0,3.1,0.2,6.3-0.1,9.4c-0.3,3.6,1.3,4.7,4.7,4.6c3.1-0.1,5.2-0.6,5.1-4.4c-0.1-6,0-12.1,0.1-18.1
		c0.1-3.3,0.2-6-4.7-6c-4.5,0-5.2,2.1-4.9,5.7C164.6,77.5,164.5,80.4,164.5,83.3z M280.6,51.1C280.5,51.1,280.5,51.1,280.6,51.1
		c-0.1-2.5-0.2-4.9,0-7.4c0.3-4.6-2.9-4-5.8-4.3c-3.7-0.4-4.7,1.2-4.7,4.6c0,3.5,1.6,7.7-0.9,10.4c-3.4,3.6,0.9,5.2,1.7,6.9
		c1.2,2.3,4.9,1.2,7.4,0.8c2.8-0.4,2.1-3,2.2-4.9C280.7,55.1,280.6,53.1,280.6,51.1z M356,76.4c0-0.1,0-0.3,0-0.4
		c3.8,0,7.6,0,11.4,0c1.2,0,2.9,0.3,3.4-1.4c0.5-1.6-1-2.2-1.9-3.1c-6.2-5.9-13.9-5.1-21.6-5c-3.5,0-5.9,0.3-5.9,5
		c0,4.5,2.1,5.3,5.8,5C350.2,76.2,353.1,76.4,356,76.4z M229.1,50.8C229.1,50.8,229.1,50.8,229.1,50.8c0-1.3,0.2-2.7,0-4
		c-0.5-2.8,1.9-7.3-4-7.1c-5.2,0.1-6.9,2.7-6.4,7.7c0.3,3.3,0.2,6.7,0,10c-0.2,3.5,0.8,5.3,4.8,5.3c3.8,0,6-0.9,5.6-5.2
		C229,55.3,229.1,53.1,229.1,50.8z M292.7,444.1C292.7,444.1,292.7,444.1,292.7,444.1c0,1.3-0.3,2.8,0.1,4c0.7,2.5-2.4,7.1,3,7
		c4.6,0,8.3-1.7,7.4-7.7c-0.4-3.1-0.2-6.2-0.2-9.4c0-3.3-0.6-5.6-4.8-5.3c-3.6,0.2-6.1,0.9-5.5,5.3
		C292.9,440,292.7,442.1,292.7,444.1z M431.7,340.4C431.7,340.5,431.7,340.5,431.7,340.4c-2,0.1-4,0.1-6,0c-3.4-0.2-6.1-0.1-5.9,4.8
		c0.1,4.3,1.4,6.2,5.9,5.7c3.1-0.3,6.3-0.1,9.4-0.2c5.5-0.1,6.8-4.9,7-8.3c0.3-4-4.1-1.4-6.3-2C434.5,340.1,433,340.4,431.7,340.4z
		 M207.8,444.7C207.8,444.7,207.8,444.7,207.8,444.7c0-1.3,0-2.7,0-4c0-3.4,1.1-7.1-4.9-7.2c-5.9-0.1-6,3-5.7,7.2
		c0.2,2.9,0.3,5.8,0.1,8.7c-0.4,5.3,3.4,5.6,6.9,6c5.2,0.6,3.1-3.6,3.5-6C208,447.9,207.8,446.3,207.8,444.7z M143.7,78.7
		c3.6,0,7.2-0.1,10.7,0c3.8,0.1,3.5-2.6,3.4-5.1c0-2.2,0.3-4.6-3.2-4.6c-7.4-0.1-14.8-0.7-20.9,4.8c-1.1,1-3.2,1.5-2.8,3.4
		c0.4,2.1,2.5,1.4,3.9,1.4C137.9,78.8,140.8,78.7,143.7,78.7z M250.1,453.8c0,0,0,0.1,0,0.1c-4,0-8,0-12.1,0c-2.2,0-3.3,1.1-3.3,3.3
		c0,2.3,1.1,3.3,3.3,3.3c7.8,0,15.6,0,23.4,0c2.4,0,4-1,4-3.4c0.1-2.6-1.7-3.3-4-3.3C257.7,453.8,253.9,453.8,250.1,453.8z
		 M71.4,341.9c-2.5,0-4.9-0.1-7.4,0c-2.1,0.1-3.4,0.7-2.9,3.3c1.1,5.9,14,10.6,18.6,6.8c0.6-0.5,0.9-1.5,1.1-2.3
		C82.4,343.3,80.8,342,71.4,341.9z M299.5,52.3c0-1.6,0-3.1,0-4.7c-0.1-4.3-4.6-8.2-7.7-5.9c-5.6,4.1-0.9,10.7-2.1,16.1
		c-0.6,2.7,0.9,3.8,3.8,4C301.8,62.3,299.1,56.4,299.5,52.3z M424.6,145c0-0.1,0-0.1,0-0.2c2,0,4.1,0.2,6.1,0
		c1.6-0.2,3.8,0.9,4.8-1.2c0.9-2-0.9-3.3-1.8-4.8c-1.8-3-15.5-5.2-18.4-2.9c-2.1,1.7-1,4.2-1,6.3c-0.1,2.5,1.6,2.8,3.6,2.8
		C420.1,145,422.4,145,424.6,145z M75.9,147.4C75.9,147.4,75.9,147.4,75.9,147.4c1.8,0,3.6-0.1,5.4,0.1c3.3,0.2,5-0.8,5-4.5
		c0-3.3-0.4-5.8-4.5-5.7c-2.7,0-5.4-0.5-8-0.2c-4.6,0.6-6.4,4.6-6.5,8.1c-0.1,3.3,3.8,1.7,6,2.1C74.1,147.5,75,147.4,75.9,147.4z
		 M209.6,54c0.1-1.8,0.3-3,0.1-4c-0.4-2.6,1.9-6.9-3.5-6.8c-4.4,0.1-7.1,2-6.5,7.1c0.3,2.9,0.2,5.8,0.1,8.7c-0.1,2.9,1.3,3.7,4,3.9
		C212.2,63.6,208.9,57.2,209.6,54z M249.6,43.8c0-0.1,0-0.1,0-0.2c3.8,0,7.6,0,11.4,0c1.8,0,3.1-0.7,3.1-2.7c0-1.5-0.6-2.8-2.2-2.8
		c-8.1,0-16.1,0.1-24.2,0.4c-1.7,0.1-2.9,1.3-2.6,3.3c0.2,1.8,1.7,1.9,3,1.9C242,43.8,245.8,43.8,249.6,43.8z M395.2,399.5
		c0.4-2.7-0.4-5.3-5.7-5.2c-4.4,0.1-5.7,1.8-4.9,5.5c0.8,3.7-2.6,9.9,2.4,10.6C390.4,411,395.4,406.7,395.2,399.5z M415.1,112.5
		c-0.4,0.2-0.8,0.5-1.2,0.7c0,4.1-0.1,8.3,0,12.4c0,1.7-0.1,3.9,2.5,3.9c2.4,0,5.2,1,6.9-1c1.3-1.5,1-3.9-0.2-5.6
		C420.5,119.3,417.7,115.9,415.1,112.5z M426.4,356.8c-2.8,0.3-5.8-0.3-5.8,2.2c0.1,4.7-1.9,12.1,1.7,13.4c3.7,1.3,6.4-5.6,8-9.7
		C431.7,359.2,430.5,356,426.4,356.8z M377.2,86.5c1.2,3.3-2.1,8.7,5.3,8.4c4.5-0.1,4.9-2,5-5.7c0.2-5.8-4.1-8.8-7.9-9.4
		C375.4,79.2,378.5,84.3,377.2,86.5z M116.5,404.1c-0.4-3.6,1.9-8.3-4.8-8.1c-3.3,0.1-5.7,0.2-5.5,4.5c0.2,3.7,5.2,10.7,8,10.1
		C118.2,409.7,115.6,406.1,116.5,404.1z M122.5,90.2c-0.9-1.6,2-5.2-2.1-6c-2.5-0.5-8.1,6.5-8.3,9.3c-0.2,4.1,2.5,3.7,5.3,4
		C123.1,98.1,122.6,94.3,122.5,90.2z M80,365.1c1.1-4.7-0.3-6.6-4.3-5.9c-1.8,0.3-5.7-1.4-4.9,2.1c0.9,3.9,3.3,9.1,7.1,9.8
		C81.7,371.7,78.9,366.4,80,365.1z M86.1,124.7c-0.4-1,1.5-4.9-1.7-4.3c-3.9,0.8-6,5.2-7.2,8.8c-0.8,2.6,2.2,1.8,3.8,2
		C85.7,132.2,86.9,129.7,86.1,124.7z M454.4,187.9c-3.3,1.6-1.7,4.3-1.9,6.5c-0.2,2.5,0.7,4.3,3.8,4c2.4-0.3,2.1-1.7,1.6-3.3
		C457,192.5,457.4,189.3,454.4,187.9z M49.3,194.7c-0.9-1,1.2-4.2-1.6-3.7c-2.8,0.5-2.2,4.4-3.1,6.7c-0.5,1.3-0.1,2.9,1.7,2.8
		C50.4,200.5,48.3,197,49.3,194.7z M459,282.6c-3.5,0.1-3.1,2.7-2.8,4.8c0.3,1.9-1.2,5.6,2,5.3c3.6-0.3,2.2-4.7,3.2-7.2
		C461.9,284,461.3,282.5,459,282.6z M44.9,295.8c1.4-6.7,1.4-9.6-0.2-10.3c-0.7-0.3-2.2,0-2.4,0.4c-1.2,3.4-0.5,6.5,1.4,9.4
		C43.9,295.5,44.2,295.5,44.9,295.8z"/>
	<path class="st0" d="M251.2,270.5c67.3,0.3,134.5-1.5,201.7-2.7c2.5,0,6.2-2.1,7.2,2.5c1.2,5.3-1.5,6.4-6.3,6.5
		c-34.2,0.5-68.4,1.2-102.5,1.8c-100.5,1.8-201.1,0.7-301.6,0.8c-2.6,0-6.4,1.5-7.2-2.8c-0.9-4.9,1.2-6.5,6.3-6.5
		c65,0.2,130,0.3,195,0.4C246.2,270.5,248.7,270.5,251.2,270.5z"/>
	<path class="st0" d="M251.4,208.1c66.7-2.1,133.5-0.4,200.3-2.6c2.7-0.1,6-1.5,6.2,3.6c0.2,4.2-1.8,4.8-5.2,4.9
		c-19.3,0.3-38.7,0.8-58,1.2c-61.6,1.5-123.2,1.5-184.8,1.6c-52.8,0-105.6,1.1-158.3-0.2c-2.4-0.1-6.3,1.9-7-2.8
		c-0.5-3.8,0.1-6.2,5.2-6.2c47.2,0.3,94.4,0.4,141.6,0.5C211.3,208.1,231.3,208.1,251.4,208.1z"/>
	<path class="st0" d="M271.7,347.2c-0.6-3.9,1-5.3,4.9-5.2c6.7,0.2,13.5,0.1,20.2-0.2c3.5-0.1,5.5,0.4,5.4,4.7c-0.1,3.6-0.3,5.9-5,6
		c-7.1,0.1-14.2-0.6-21.3,1.1C271,354.8,272.2,349.9,271.7,347.2z"/>
	<path class="st0" d="M171.2,337.5c0,3.1-0.2,6.3,0.1,9.4c0.3,4.2-0.8,6.1-5.5,5.9c-4.4-0.1-5.6-1.9-5-5.7c1.1-7-1.5-13.9,0.2-21
		c1-4,3-4.1,6.1-4.3c3.8-0.1,4.5,1.7,4.4,4.9c-0.2,3.6,0,7.2,0,10.7C171.3,337.5,171.3,337.5,171.2,337.5z"/>
	<path class="st0" d="M287.2,415.9c2.9,0,5.8,0.1,8.7,0c3.9-0.2,6.6-0.2,6.7,5.3c0.1,5.7-3,5.4-6.8,5.4c-6.7,0-13.4-0.1-20.1,0.2
		c-4.3,0.2-4.5-2.1-4.6-5.4c0-3.4,0.5-5.6,4.6-5.4c3.8,0.2,7.6,0.1,11.4,0.1C287.2,416,287.2,416,287.2,415.9z"/>
	<path class="st0" d="M138.7,406.8c-3.4,0-6.7-0.2-10.1,0c-3.8,0.2-5.9-0.7-5.6-5.1c0.2-3.9,1.3-5.7,5.5-5.6
		c6.9,0.2,13.9,0.2,20.8,0c4-0.1,4.9,1.7,4.7,5.3c-0.1,3.3-0.3,5.8-4.6,5.5C145.8,406.6,142.3,406.8,138.7,406.8z"/>
	<path class="st0" d="M346.5,405.1c0.2-1.9,0.5-3.2,0.4-4.5c-0.6-4.3,1-6.1,5.6-6c6.7,0.2,13.5,0.2,20.2-0.2
		c4.6-0.2,4.9,2.3,5.1,5.8c0.2,4.1-1.6,4.9-5.1,4.9C363.9,405,355.2,405.1,346.5,405.1z"/>
	<path class="st0" d="M139.5,332.6c-3.1,0-6.3-0.1-9.4,0c-3.6,0.2-6-0.4-5.9-4.9c0.1-4.1,1.1-6.2,5.7-6c6.7,0.3,13.4,0.2,20.1,0
		c4-0.1,4.9,1.9,4.8,5.4c-0.1,3.3-0.4,5.8-4.7,5.4C146.7,332.4,143.1,332.6,139.5,332.6z"/>
	<path class="st0" d="M265.4,411.6c0,2.9-0.1,5.8,0,8.8c0.2,4,0,6.7-5.5,6.7c-5.3,0-5-2.9-5-6.4c0.1-6.5,0.2-13-0.1-19.5
		c-0.2-4,1.6-5,5.1-5.1c3.6-0.1,5.6,0.9,5.3,4.9C265.2,404.4,265.3,408,265.4,411.6C265.4,411.6,265.4,411.6,265.4,411.6z"/>
	<path class="st0" d="M249.8,444.4c-2.9,0-5.8-0.1-8.7,0c-3.6,0.1-6.5,0.3-6.5-5c0-5,2-6,6.4-5.9c6.7,0.2,13.4,0.2,20.2-0.1
		c3.8-0.1,4.4,1.9,4.4,5c0,3.2,0,5.9-4.4,5.8c-3.8-0.1-7.6,0-11.4,0C249.8,444.3,249.8,444.3,249.8,444.4z"/>
	<path class="st0" d="M212.5,427c-3.1,0-6.3-0.1-9.4,0c-3.6,0.2-5.9-0.3-5.8-4.9c0.1-4.5,1.7-5.9,6-5.7c6.7,0.3,13.5,0.2,20.2,0
		c4.2-0.1,4.5,2.1,4.6,5.5c0.1,3.7-0.9,5.4-4.8,5.2C219.7,426.8,216.1,427,212.5,427C212.5,427,212.5,427,212.5,427z"/>
	<path class="st0" d="M176.2,359.2c3.1,0,6.3,0.1,9.4,0c3.4-0.1,6.1-0.2,5.9,4.7c-0.1,4.2-1.2,6.2-5.7,6c-6.7-0.2-13.4-0.2-20.1,0
		c-4.3,0.2-5.2-1.9-5.2-5.7c0-3.7,1.2-5.3,5-5.1C169.1,359.3,172.7,359.2,176.2,359.2C176.2,359.2,176.2,359.2,176.2,359.2z"/>
	<path class="st0" d="M320,410.7c0,3.3-0.2,6.7,0,10c0.3,3.8-0.8,5.7-5.1,5.8c-4.2,0.1-5.5-1.4-5.5-5.4c0.1-6.7,0-13.4-0.3-20.1
		c-0.2-3.9,0.9-5.5,5.2-5.6c4.6-0.1,5.9,1.7,5.5,5.9c-0.3,3.1-0.1,6.2-0.1,9.4C319.9,410.7,319.9,410.7,320,410.7z"/>
	<path class="st0" d="M287.2,321.9c2.9,0,5.9,0.2,8.8,0c4-0.3,6.1,0.6,6.3,5.4c0.1,5.1-2.6,5.3-6.3,5.2c-6.5-0.1-13-0.1-19.5,0.1
		c-4,0.2-5-1.6-4.9-5.2c0-3.6,0.9-5.5,5-5.2c3.6,0.3,7.2,0.1,10.8,0.1C287.2,322.1,287.2,322,287.2,321.9z"/>
	<path class="st0" d="M181,336.7c0-2.9,0.3-5.8-0.1-8.7c-0.6-5,2-5.9,6.2-6.2c5.4-0.4,4.3,3.3,4.4,6.2c0.1,6.7-0.2,13.4,0,20.1
		c0.1,4.1-1.9,4.7-5.4,4.8c-3.4,0-5.6-0.5-5.3-4.7C181.1,344.3,180.9,340.5,181,336.7C181,336.7,181,336.7,181,336.7z"/>
	<path class="st0" d="M211.9,406.8c-2.9,0-5.8-0.1-8.7,0c-3.6,0.2-5.9-0.3-5.9-4.9c0-4.7,1.8-5.8,6-5.6c6.7,0.2,13.4,0.2,20.2-0.1
		c4.2-0.1,4.6,2,4.7,5.4c0.1,3.6-0.8,5.5-4.8,5.2C219.5,406.6,215.7,406.8,211.9,406.8C211.9,406.8,211.9,406.8,211.9,406.8z"/>
	<path class="st0" d="M324.2,368.8c-3.1,0-6.3-0.1-9.4,0c-3.4,0.1-5.9,0.2-6-4.7c0-4.6,1.6-5.8,5.8-5.7c6.7,0.1,13.4,0,20.1-0.3
		c4.1-0.2,4.8,1.9,4.9,5.3c0.1,3.5-0.6,5.6-4.7,5.3c-3.6-0.2-7.1-0.1-10.7-0.1C324.2,368.7,324.2,368.7,324.2,368.8z"/>
	<path class="st0" d="M324.5,389c-3.1,0-6.3-0.2-9.4,0c-4,0.3-6.1-0.5-6.1-5.4c0-5,2.4-5.4,6.3-5.3c6.5,0.2,13,0.2,19.6-0.1
		c3.9-0.2,5.1,1.4,5.1,5.1c0.1,3.8-0.9,6-5.2,5.6C331.3,388.7,327.9,388.9,324.5,389C324.5,388.9,324.5,388.9,324.5,389z"/>
	<path class="st0" d="M175.9,379.4c3.1,0,6.3,0.1,9.4,0c3.4-0.1,6.1,0,6,4.8c-0.1,4.4-1.5,6-5.9,5.9c-6.7-0.2-13.5-0.2-20.2,0
		c-3.9,0.1-4.9-1.7-4.9-5.4c0.1-3.4,0.5-5.7,4.7-5.3C168.7,379.7,172.3,379.4,175.9,379.4z"/>
	<path class="st0" d="M249.5,389.9c-2.7,0-5.4-0.1-8.1,0c-4,0.2-6.8,0.1-6.8-5.5c0-5.3,2.8-5.1,6.4-5c6.5,0.1,13,0.2,19.5-0.1
		c4.2-0.2,4.8,2,4.8,5.4c0,3.1-0.6,5.3-4.4,5.1c-3.8-0.2-7.6,0-11.4,0C249.5,389.8,249.5,389.9,249.5,389.9z"/>
	<path class="st0" d="M340.1,410.5c0,3.1-0.1,6.3,0,9.4c0.1,3.3,0.3,6.1-4.5,6.1c-4.3,0-5.9-1.3-6-5.8c-0.1-6.2,0.5-12.3-1.4-18.5
		c-1-3.3,0.3-6.4,4.9-6.4c3.7,0,7.4-0.6,6.8,5.1c-0.3,3.3-0.1,6.7-0.1,10.1C340,410.5,340,410.5,340.1,410.5z"/>
	<path class="st0" d="M135.8,300.4c0,2.9,0,5.8,0,8.7c-0.1,3.6,0.5,7.1-5.2,7.1c-5.6,0.1-5.4-2.9-5.3-6.8c0.2-5.8,0.2-11.6,0.1-17.4
		c-0.1-4,0.2-6.8,5.5-6.8c5.8,0,5.1,3.5,5.1,7.1c0,2.7,0,5.4,0,8C135.9,300.4,135.8,300.4,135.8,300.4z"/>
	<path class="st0" d="M413,336.9c0,2.9-0.1,5.8,0,8.7c0.2,3.3,0,5.5-4.4,5.5c-3.9,0-5.9-0.9-5.9-5c-0.1-6.9-0.2-13.9-0.7-20.8
		c-0.3-4.2,2-4.7,5.3-4.9c3.3-0.2,5.2,0.8,5.1,4.4c-0.1,4,0,8,0,12.1C412.6,336.9,412.8,336.9,413,336.9z"/>
	<path class="st0" d="M397.4,314.6c-3.1,0-6.3-0.2-9.4,0.1c-4.4,0.4-5.9-1.3-5.9-5.7c0-4.7,2.5-4.9,6-4.9c6.5,0.1,13,0.2,19.5-0.2
		c4.5-0.3,5,2.1,5.2,5.7c0.3,4.2-1.9,4.9-5.3,4.8c-3.4-0.1-6.7,0-10.1,0C397.4,314.4,397.4,314.5,397.4,314.6z"/>
	<path class="st0" d="M366.1,372.8c0-2.9,0.1-5.8,0-8.7c-0.2-3.8,0.1-6.3,5.1-6.3c4.8,0,5.5,2,5.5,6c-0.1,6.5,0.2,13,0.6,19.4
		c0.2,3.6-0.7,5.4-4.7,5.4c-3.7,0-6.1-0.6-5.7-5.1c0.3-3.6,0.1-7.2,0.1-10.7C366.6,372.8,366.4,372.8,366.1,372.8z"/>
	<path class="st0" d="M234.8,411.7c0-3.4,0.3-6.8-0.1-10.1c-0.4-4.4,1.8-5.3,5.5-5.4c4.2-0.1,5.3,1.8,5.2,5.7
		c-0.3,6.5-0.2,13,0,19.5c0.1,3.9-1,5.5-5.2,5.6c-4.7,0.1-5.8-1.8-5.5-5.9C235,418,234.8,414.9,234.8,411.7
		C234.8,411.7,234.8,411.7,234.8,411.7z"/>
	<path class="st0" d="M139.3,352.8c-2.9,0-5.8,0-8.7,0c-3.4,0-6.7,0.6-6.6-4.8c0.1-4.7,1.8-6.3,6.3-6.1c6.5,0.3,13,0.3,19.4,0.1
		c4-0.1,5,1.6,4.9,5.2c0,3.7-1,5.9-5.3,5.5C146,352.5,142.6,352.7,139.3,352.8C139.3,352.7,139.3,352.8,139.3,352.8z"/>
	<path class="st0" d="M250.1,316.2c-2.9,0-5.9-0.1-8.8,0c-3.9,0.2-6.4-0.4-6.4-5.3c0-4.9,2.3-5.5,6.3-5.4c6.5,0.2,13,0.2,19.5-0.1
		c4.1-0.2,4.9,1.8,4.9,5.3c0,3.4-0.6,5.7-4.8,5.4C257.3,316,253.7,316.1,250.1,316.2C250.1,316.2,250.1,316.2,250.1,316.2z"/>
	<path class="st0" d="M291.6,373c0-3.4,0.2-6.7-0.1-10.1c-0.2-2.5,0.8-5.6,2.6-4.5c2.6,1.5,7.7-1.6,7.9,3.8
		c0.3,7.8,0.1,15.7,0.2,23.5c0,4-2.8,3.3-5.2,3.3c-2.4,0-5.2,0.6-5.3-3.3c0-4.2,0-8.5,0-12.7C291.7,373,291.7,373,291.6,373z"/>
	<path class="st0" d="M302.2,301.1c0,3.3-0.2,6.7,0,10c0.3,4-1.7,4.9-5.2,4.9c-3.6,0-5.3-1.3-5.3-5.1c0.1-6.9,0.1-13.8-0.2-20.7
		c-0.2-4.3,2.4-4.5,5.5-4.8c3.7-0.3,5.4,1,5.2,4.9C302,294,302.2,297.6,302.2,301.1C302.2,301.1,302.2,301.1,302.2,301.1z"/>
	<path class="st0" d="M249.8,369.9c-2.9,0-5.8-0.1-8.8,0c-3.7,0.2-6.3-0.1-6.4-5.2c-0.1-5.4,2.6-5.7,6.6-5.5
		c6.1,0.2,12.2,0.4,18.2-0.1c4.7-0.4,5.6,1.8,5.8,5.8c0.2,4.7-2.5,5-6,4.9C256.1,369.7,252.9,369.8,249.8,369.9
		C249.8,369.8,249.8,369.8,249.8,369.9z"/>
	<path class="st0" d="M213,352.7c-3.1,0-6.3-0.2-9.4,0.1c-4.2,0.4-6-1-6-5.5c0.1-4.3,2-5.2,5.8-5c6.5,0.2,13,0.2,19.4,0
		c4.2-0.1,5.3,1.6,5.2,5.6c-0.1,3.9-1.3,5.2-5.1,4.9C219.7,352.5,216.3,352.7,213,352.7C213,352.7,213,352.7,213,352.7z"/>
	<path class="st0" d="M392.8,336.9c0,2.7-0.1,5.4,0,8c0.2,3.5,0.5,6.4-4.8,6.5c-4.9,0.1-5.6-2.2-5.6-6c-0.1-6.7-0.2-13.4-0.3-20.1
		c0-2.6,0.4-5.8,3.6-4.8c2.5,0.8,7.3-0.5,6.9,5c-0.3,3.8-0.1,7.6-0.1,11.4C392.7,336.9,392.7,336.9,392.8,336.9z"/>
	<path class="st0" d="M176.6,316.1c-2.7,0-5.4-0.1-8,0c-4,0.2-6.7-0.1-6.7-5.5c0-5.6,3-5.3,6.9-5.3c6.5,0.1,13,0,19.4,0.1
		c1.8,0,4.8-0.1,3.8,2.6c-1.1,2.7,2.5,8.1-4,8.1C184.2,316.1,180.4,316.1,176.6,316.1z"/>
	<path class="st0" d="M234.8,337.1c0-2.7,0.1-5.4,0-8.1c-0.2-3.9-0.1-6.8,5.4-6.7c5,0.1,5.2,2.7,5.2,6.4c-0.1,6.3-0.2,12.6,0.2,18.8
		c0.2,4.3-1.7,5.3-5.6,5.3c-3.7,0-5.4-1-5.1-5C235,344.3,234.8,340.7,234.8,337.1z"/>
	<path class="st0" d="M396.4,294.6c-2.7,0-5.4-0.2-8.1,0c-4.2,0.4-6.5-0.4-6.5-5.6c-0.1-5.5,3.3-4.8,6.6-4.9
		c6.3-0.1,12.5,0,18.8-0.3c4.2-0.2,4.6,2,4.7,5.4c0.1,3.6-0.7,5.5-4.7,5.3c-3.6-0.2-7.2,0-10.7,0
		C396.4,294.5,396.4,294.6,396.4,294.6z"/>
	<path class="st0" d="M212.6,166.2c-2.9,0-5.8-0.1-8.7,0c-4,0.3-5.5-1.3-5.5-5.4c0-4.4,2-5.1,5.7-5c6.5,0.2,12.9,0.1,19.4-0.1
		c3.6-0.1,4.8,1.3,4.6,4.7c-0.1,3,0.4,6-4.2,5.8c-3.8-0.2-7.6,0-11.4,0C212.6,166.1,212.6,166.2,212.6,166.2z"/>
	<path class="st0" d="M394.6,200c-3.1,0-6.3-0.2-9.4,0.1c-4.1,0.4-5.6-1.3-5.6-5.3c0-3.9,1.6-5,5.2-4.9c6.7,0.1,13.4,0.1,20.1-0.2
		c3.9-0.2,4.3,2,4.3,5c0,2.9,0.1,5.5-3.9,5.3c-3.6-0.1-7.2,0-10.7,0C394.6,199.9,394.6,200,394.6,200z"/>
	<path class="st0" d="M285,166.1c-2.9,0-5.8-0.2-8.7,0c-3.9,0.3-5.8-1-5.7-5.2c0.1-4.2,2-5.3,5.9-5.1c6.5,0.2,13,0.1,19.5-0.3
		c3.9-0.2,4.4,2,4.5,5c0.1,3-0.1,5.5-4,5.4c-3.8,0-7.6,0-11.4,0C285,166,285,166.1,285,166.1z"/>
	<path class="st0" d="M286.5,406.4c-2.7,0-5.4-0.1-8.1,0c-3.7,0.2-6.3,0.1-6.4-5.1c-0.1-5.3,2.5-5.7,6.6-5.6
		c6,0.2,12.1,0.1,18.1-0.2c3.7-0.2,5.6,0.5,5.7,5c0.1,4.7-1.8,5.9-5.9,5.7c-3.3-0.2-6.7,0-10.1,0
		C286.5,406.3,286.5,406.4,286.5,406.4z"/>
	<path class="st0" d="M218.6,301.3c0-3.1,0.2-6.3,0-9.4c-0.3-4,0.5-6.1,5.3-6.1c4.9,0,5.3,2.4,5.2,6.3c-0.2,6.5-0.2,12.9,0,19.4
		c0.1,4.1-2.1,4.6-5.5,4.7c-3.6,0.1-5.4-0.9-5.1-4.9C218.8,308,218.6,304.7,218.6,301.3z"/>
	<path class="st0" d="M177,296c-2.9,0-5.8-0.2-8.7,0c-3.9,0.3-6.2-0.4-6.3-5.3c-0.1-4.9,2.2-5.4,6.1-5.2c6.5,0.2,13,0.3,19.5,0
		c4.4-0.2,4.6,2.2,4.5,5.5c0,3.1-0.4,5.3-4.3,5C184.2,295.8,180.6,296,177,296z"/>
	<path class="st0" d="M434.6,320c3.1,0,6.3,0.2,9.4,0c3.4-0.2,5.6,0.3,5.5,4.6c-0.1,3.8-1.2,5.9-5.4,5.8c-6.7-0.1-13.5,0.1-20.2,0.5
		c-4.6,0.3-4.3-2.6-4.5-5.6c-0.2-3.3,0.7-5.1,4.4-4.9c3.6,0.2,7.2,0,10.8,0C434.6,320.2,434.6,320.1,434.6,320z"/>
	<path class="st0" d="M102.3,369.9c-2.9,0-5.8,0-8.7,0c-3.5,0.1-6.6,0.2-6.6-5c0-5,2.1-6,6.5-5.8c6.5,0.3,13,0.2,19.5,0
		c3.7-0.1,4.6,1.7,4.4,4.9c-0.2,3,0.2,6-4.3,5.9C109.4,369.8,105.9,369.9,102.3,369.9C102.3,369.9,102.3,369.9,102.3,369.9z"/>
	<path class="st0" d="M104.4,296.1c-3.1,0-6.3-0.1-9.4,0c-3.3,0.1-6.2,0.3-6-4.6c0.1-4.2,1.2-6.2,5.7-6c6.5,0.2,13,0.2,19.5-0.1
		c3.9-0.2,5.1,1.5,4.9,5.1c-0.1,3.2-0.4,5.8-4.6,5.5c-3.3-0.2-6.7,0-10.1,0C104.4,296,104.4,296,104.4,296.1z"/>
	<path class="st0" d="M104.5,305.4c2.7,0,5.4,0.1,8.1,0c3.5-0.1,6.5-0.4,6.4,5c-0.1,5.1-2.2,6-6.5,5.9c-6.3-0.2-12.6-0.2-18.8,0.1
		c-3.9,0.2-5-1.4-4.9-5.1c0.1-3.6,0.4-6.1,5-5.8C97.3,305.6,100.9,305.4,104.5,305.4C104.5,305.4,104.5,305.4,104.5,305.4z"/>
	<path class="st0" d="M250.1,182.1c-3.1,0-6.3-0.1-9.4,0c-3.9,0.2-5.7-1.1-5.7-5.4c0-4.4,2-5.3,5.8-5.1c6.3,0.2,12.6,0.3,18.9,0
		c3.8-0.1,5.1,1.1,5.2,4.9c0,4-1.2,5.9-5.3,5.6C256.4,182,253.2,182.2,250.1,182.1C250.1,182.1,250.1,182.1,250.1,182.1z"/>
	<path class="st0" d="M323.2,295.8c-2.7,0-5.4-0.1-8.1,0c-3.6,0.2-6.4,0.2-6.4-5c0.1-4.7,2-5.6,6.1-5.5c6.3,0.2,12.5,0.1,18.8-0.2
		c3.6-0.2,5.3,0.7,5.3,4.7c-0.1,3.7-0.5,6.2-5,5.9c-3.6-0.2-7.2,0-10.7,0C323.2,295.6,323.2,295.7,323.2,295.8z"/>
	<path class="st0" d="M249.8,102c3.1,0,6.3,0.2,9.4,0c4.4-0.4,5.2,1.9,5.3,5.7c0.1,4.3-2.1,4.7-5.4,4.6c-6.5-0.1-13-0.2-19.5,0.1
		c-4,0.2-4.8-1.6-4.8-5.2c0-3.8,1.2-5.4,5-5.2C243.1,102.1,246.5,102,249.8,102z"/>
	<path class="st0" d="M449.4,299.6c0,2.7-0.1,5.4,0,8.1c0.2,3.3,0.4,6-4.6,6c-4.6,0.1-5.8-1.8-5.9-5.8c-0.1-6.7-0.2-13.4-0.5-20.2
		c-0.2-3.5,1.5-4.2,4.4-4.1c2.9,0.1,6.2-0.7,6.1,3.9c-0.1,4,0,8.1,0,12.1C449.1,299.6,449.3,299.6,449.4,299.6z"/>
	<path class="st0" d="M249.6,120.9c2.9,0,5.8,0.2,8.7,0c4-0.3,6.3,0.6,6.2,5.4c0,4.6-2.3,5-5.9,4.9c-6-0.2-12.1-0.2-18.1,0
		c-3.6,0.1-5.9-0.3-5.9-4.9c0-4.8,2.3-5.6,6.2-5.4C243.8,121,246.7,120.9,249.6,120.9z"/>
	<path class="st0" d="M335.9,83.5c0,1.1-0.3,3.8,0.1,6.4c0.6,5.1-2,6.2-6.4,5.9c-4.5-0.3-6.2-3.1-5.3-6.8c1.5-5.8,1-11.5,0.9-17.3
		c-0.1-3.7,1.1-5.2,5-5.3c4-0.1,5,1.7,5.1,5.2C335.3,75.1,335.6,78.5,335.9,83.5z"/>
	<path class="st0" d="M249,201.2c-2.9,0-5.8-0.1-8.7,0c-3.5,0.2-5.4-0.8-5.4-4.8c0.1-3.7,0.8-5.9,5.2-5.8c6.7,0.3,13.4,0.3,20.1,0.1
		c3.7-0.1,4.5,1.6,4.5,4.9c-0.1,3.1,0.2,5.9-4.3,5.7C256.6,201,252.8,201.2,249,201.2z"/>
	<path class="st0" d="M214.1,136.7c2.9,0,5.9,0.1,8.8,0c3.4-0.2,5.6,0.3,5.5,4.6c-0.1,3.7-0.5,6-5,5.9c-6.5-0.2-13-0.1-19.6,0
		c-3.9,0.1-5.1-1.7-5-5.3c0.1-3.6,1.3-5.4,5.2-5.2C207.3,137,210.7,136.8,214.1,136.7C214.1,136.8,214.1,136.7,214.1,136.7z"/>
	<path class="st0" d="M177.4,201.3c-2.9,0-5.8-0.2-8.7,0c-3.8,0.3-5.7-0.5-5.7-5c0-4.2,1.7-5.5,5.5-5.4c6.7,0.1,13.4,0.1,20.1-0.2
		c4-0.1,4.2,2.2,4.2,5.1c0,2.9,0,5.5-4,5.3C185,201.1,181.2,201.2,177.4,201.3C177.4,201.3,177.4,201.3,177.4,201.3z"/>
	<path class="st0" d="M106.4,201.3c-2.9,0-5.8,0-8.8,0c-3.2,0-6.2,0.5-6.1-4.5c0-5,2.1-6.1,6.5-5.9c5.6,0.3,11.2,0.1,16.8,0.1
		c3.6,0,6.6-0.2,6.6,5.1c0,4.8-2.3,5.6-6.3,5.4C112.3,201.1,109.3,201.3,106.4,201.3z"/>
	<path class="st0" d="M178.2,182.3c-3.1,0-6.3-0.2-9.4,0c-3.8,0.2-5.7-0.8-5.6-5.2c0.1-4.1,1.5-5.6,5.6-5.4c6.7,0.2,13.4,0.2,20.1,0
		c4.1-0.1,4.1,2.2,4.1,5.1c0,2.9-0.1,5.5-4,5.4c-3.6-0.1-7.2,0-10.7,0C178.2,182.2,178.2,182.2,178.2,182.3z"/>
	<path class="st0" d="M106.8,172c2.9,0,5.8,0.2,8.7,0c3.9-0.3,6.2,0.5,6.2,5.3c0,5.1-2.7,5.2-6.4,5.1c-6.3-0.1-12.5-0.1-18.8,0
		c-3.6,0.1-4.7-1.7-4.5-5c0.2-3.1,0.4-5.9,4.7-5.6C100.1,172.1,103.4,171.9,106.8,172C106.8,171.9,106.8,172,106.8,172z"/>
	<path class="st0" d="M101.6,379.4c3.1,0,6.3,0,9.4,0c3.3-0.1,6.2-0.4,6.1,4.6c-0.1,4.8-1.9,6.4-6.4,6.1c-4.9-0.3-9.9-0.3-14.8-0.1
		c-3.3,0.1-5.6-1.2-7.4-3.7c-1.2-1.6-2.7-3.2-1.7-5.4c0.9-2.2,3.1-1.4,4.7-1.5C94.9,379.2,98.2,379.3,101.6,379.4
		C101.6,379.3,101.6,379.3,101.6,379.4z"/>
	<path class="st0" d="M264.4,151.5c0,2.9-0.1,5.8,0,8.7c0.1,3.4,0.2,6.1-4.7,6.1c-4.2-0.1-6.1-1.3-5.9-5.8c0.3-6.2,0.2-12.5,0-18.7
		c-0.1-3.8,1.6-5.1,5.2-5.1c3.4,0,5.6,0.7,5.4,4.8C264.2,144.8,264.4,148.2,264.4,151.5C264.4,151.5,264.4,151.5,264.4,151.5z"/>
	<path class="st0" d="M394.8,170.5c2.9,0,5.8,0.1,8.7,0c3.2-0.2,5.6-0.1,5.5,4.4c-0.1,3.7-0.7,5.9-5.1,5.8c-6.5-0.2-12.9,0-19.4,0.2
		c-4.2,0.2-5.2-1.7-5.3-5.6c0-4.3,2.2-4.7,5.5-4.6c3.3,0.1,6.7,0,10,0C394.8,170.6,394.8,170.6,394.8,170.5z"/>
	<path class="st0" d="M373.7,186.1c0,2.7-0.1,5.4,0,8.1c0.2,3.6-0.3,5.9-4.9,6c-4.6,0.1-5.8-1.7-5.7-5.9c0.2-6.3,0.1-12.6-0.2-18.9
		c-0.2-3.6,1.3-4.7,4.7-4.8c3.5-0.1,5.7,0.5,5.6,4.6c-0.1,3.6,0,7.2,0,10.8C373.5,186.1,373.6,186.1,373.7,186.1z"/>
	<path class="st0" d="M360.6,351.5c-3.1,0-6.3-0.1-9.4,0c-3.6,0.2-5.8-0.4-5.8-4.9c0-4.4,1.7-5.3,5.6-5.3c6.7,0.1,13.4-0.1,20.1-0.5
		c4.3-0.2,5.2,1.8,5.4,5.6c0.2,4.1-1.5,5.1-5.1,4.9c-3.6-0.2-7.2,0-10.7,0C360.6,351.4,360.6,351.4,360.6,351.5z"/>
	<path class="st0" d="M182.4,151.7c0-3.1,0.2-6.3,0-9.4c-0.3-4,1.2-5.6,5.4-5.7c4.6-0.1,5.1,2.3,5,5.9c-0.2,6.3-0.2,12.6-0.1,18.8
		c0.1,4-1.8,4.8-5.4,4.9c-3.8,0-5.4-1.3-5.1-5.1c0.2-3.1,0-6.3,0-9.4C182.2,151.7,182.3,151.7,182.4,151.7z"/>
	<path class="st0" d="M323.2,443c-2.6,0-4.8-0.1-7.1,0c-3.7,0.2-6.3,0.2-6.4-5c0-5.3,2.5-5.8,6.6-5.7c6.3,0.2,12.6-0.1,18.9-0.1
		c2.2,0,4.8-0.5,5.1,2.8c0.4,3.1,0.1,5.7-3.5,7C332.2,443.7,327.5,442.5,323.2,443z"/>
	<path class="st0" d="M356.2,383.1c1.5,4,0,5.6-4.2,5.8c-4.2,0.1-5.4-1.4-5.3-5.4c0.1-6.7-0.3-13.4-0.7-20.1
		c-0.2-3.6,0.7-5.3,4.7-5.4c3.9-0.1,5.8,0.7,5.6,5.1C356,369.7,356.2,376.4,356.2,383.1z"/>
	<path class="st0" d="M388.5,150.4c0,2.9-0.1,5.8,0,8.7c0.2,3.6-0.3,5.8-4.9,5.9c-4.5,0-5.2-2.2-5.2-5.8c-0.1-6-0.1-12.1-0.5-18.1
		c-0.3-4.3,1.7-5.3,5.6-5.4c4-0.1,5,1.7,4.9,5.3c-0.2,3.1,0,6.3,0,9.4C388.4,150.4,388.5,150.4,388.5,150.4z"/>
	<path class="st0" d="M281.6,185.9c0,3.1-0.2,6.3,0,9.4c0.3,3.8-0.8,5.9-5.1,6c-4.1,0.1-5.5-1.6-5.4-5.6c0.3-6.3,0.2-12.5,0-18.8
		c-0.1-3.7,1.1-5.1,5-5.2c4.3-0.1,5.6,1.6,5.4,5.6C281.4,180.1,281.6,183,281.6,185.9C281.6,185.9,281.6,185.9,281.6,185.9z"/>
	<path class="st0" d="M229.1,186.5c0,2.9-0.2,5.8,0.1,8.7c0.4,4.3-1.2,6-5.6,6c-4.6,0.1-5-2.4-4.9-5.9c0.1-6.3,0.2-12.5,0-18.8
		c-0.1-3.9,1.6-5,5.3-4.9c3.5,0,5.6,0.8,5.3,4.8C229,179.8,229.2,183.2,229.1,186.5C229.2,186.5,229.2,186.5,229.1,186.5z"/>
	<path class="st0" d="M52.5,300.2c0-2.9,0.1-5.8,0-8.8c-0.2-3.9,0.6-6.3,5.4-6.3c4.9,0,5.6,2.3,5.3,6.3c-0.5,6.5-0.8,13-0.9,19.5
		c0,3.8-1.4,5.2-5.2,5.1c-3.6-0.1-5.4-1.2-5-5.1c0.3-3.6,0.1-7.2,0.1-10.8C52.3,300.2,52.4,300.2,52.5,300.2z"/>
	<path class="st0" d="M209,301.1c0,3.1-0.2,6.3,0,9.4c0.2,3.8-0.8,5.8-5.2,5.7c-4.1-0.1-5.6-1.5-5.4-5.6c0.3-6.5,0.3-13,0.1-19.5
		c-0.1-4.1,1.7-5.4,5.6-5.4c3.9,0,5.1,1.6,4.8,5.3C208.8,294.4,209,297.8,209,301.1z"/>
	<path class="st0" d="M87.6,337.3c0-3.1,0.4-6.3-0.1-9.4c-0.8-5.8,2.8-6,6.8-6.2c4.9-0.2,3.7,3.5,3.7,6.1c0,6.7-0.5,13.4-0.4,20.1
		c0.1,4.5-2.2,4.9-5.8,5c-4.3,0.1-4.6-2.3-4.4-5.5c0.2-3.3,0-6.7,0-10C87.5,337.3,87.5,337.3,87.6,337.3z"/>
	<path class="st0" d="M285.3,147.2c-3.1,0-6.3-0.2-9.4,0.1c-4.2,0.4-5.5-1.6-5.5-5.4c0-3.6,1.3-5.2,5.1-5.1
		c6.7,0.2,13.4,0.2,20.1-0.1c4-0.2,4.3,2.1,4.2,5.1c0,2.8,0.2,5.5-3.9,5.4c-3.6-0.1-7.1,0-10.7,0
		C285.3,147.1,285.3,147.2,285.3,147.2z"/>
	<path class="st0" d="M280.6,116.6c0,2.9-0.1,5.8,0,8.7c0.1,3.4,0.1,6-4.7,6c-4.7,0-5.7-2-5.6-6c0.2-6,0.1-12.1,0-18.1
		c-0.1-3.9,1.7-4.9,5.3-5c3.7,0,5.3,1.2,5,5C280.4,110.3,280.6,113.5,280.6,116.6C280.6,116.6,280.6,116.6,280.6,116.6z"/>
	<path class="st0" d="M322.6,315.8c-1.6,0-4.3-0.1-7,0c-4,0.3-6.7,0.1-6.8-5.4c-0.1-5.9,3.3-5.2,6.9-5.2c5.8,0,11.6,0.1,17.4,0
		c3.5-0.1,6-0.1,5.9,4.7c-0.1,4.1-1.2,5.7-5.3,5.4C330.4,315.2,327,315.6,322.6,315.8z"/>
	<path class="st0" d="M317,152c0,2.5-0.1,4.9,0,7.4c0.2,3.5,0,6.2-4.6,6.3c-4.2,0-6.1-1.3-5.9-5.8c0.3-6,0.1-12.1-0.1-18.2
		c-0.1-3.6,0.9-5.3,4.9-5.3c3.6,0,5.5,0.9,5.4,4.8c-0.2,3.6,0,7.2,0,10.8C316.7,152,316.9,152,317,152z"/>
	<path class="st0" d="M175.4,433.6c2.9,0,5.8,0,8.7,0c3.4-0.1,6.5-0.5,6.5,4.9c-0.1,4.8-1.7,6.3-6.3,5.9c-6.8-0.6-13.8,1.2-20.4-2.1
		c-2.8-1.4-4.3-3-3.8-6.2c0.6-3.4,3.2-2.5,5.2-2.6C168.7,433.5,172.1,433.6,175.4,433.6C175.4,433.6,175.4,433.6,175.4,433.6z"/>
	<path class="st0" d="M66,185.8c0,3.1-0.1,6.3,0,9.4c0.2,4.1-0.9,6.1-5.6,6.1c-5-0.1-5.3-2.7-5.1-6.5c0.4-6.2,0.8-12.5,0.7-18.8
		c0-4.4,2.4-4.3,5.6-4.4c3.6-0.1,4.8,1.4,4.5,4.8c-0.2,3.1,0,6.3,0,9.4C66.1,185.8,66,185.8,66,185.8z"/>
	<path class="st0" d="M321.2,101.5c3.1,0,6.2,0.1,9.4,0c3.3-0.1,5.4,0.3,5.5,4.5c0,4.2-1.6,5.4-5.5,5.3c-6.5-0.1-12.9,0.1-19.4,0.5
		c-3.9,0.2-4.9-1.5-5-5.1c0-3.7,1.1-5.4,5-5.1C314.5,101.8,317.9,101.6,321.2,101.5C321.2,101.6,321.2,101.6,321.2,101.5z"/>
	<path class="st0" d="M429.4,299.2c0,2.9-0.2,5.8,0,8.7c0.3,3.4,0.3,5.9-4.5,6.1c-4.7,0.1-5.5-1.9-5.6-5.9c-0.1-6.5-0.4-13-1-19.4
		c-0.4-4.1,1.6-4.9,5.1-4.9c3.4,0,5.7,0.6,5.4,4.7c-0.2,3.6,0,7.1,0,10.7C429,299.2,429.2,299.2,429.4,299.2z"/>
	<path class="st0" d="M363,414.9c3.6,0,7.2,0,10.7,0c1.5,0,3.3-0.4,3.9,1.6c0.5,1.8-0.6,2.8-2,3.8c-4.4,3.1-8.7,6.2-14.6,5.3
		c-2.6-0.4-5.4-0.2-8,0.1c-3.6,0.3-5.9-0.3-6-4.8c-0.1-4.6,1.7-5.9,5.9-5.7c3.3,0.2,6.7,0,10.1,0C363,415.1,363,415,363,414.9z"/>
	<path class="st0" d="M360.1,331.9c-2.9,0-5.8-0.2-8.7,0c-4,0.3-6.1-0.5-6.2-5.3c-0.2-5.2,2.5-5.2,6.2-5.1
		c6.3,0.1,12.5,0.2,18.8-0.2c4.3-0.3,5.2,1.5,5.3,5.4c0.2,4.3-1.9,4.8-5.3,4.7c-3.3-0.1-6.7,0-10.1,0
		C360.1,331.5,360.1,331.7,360.1,331.9z"/>
	<path class="st0" d="M264.3,82.2c0,2.7-0.2,5.4,0,8c0.3,3.9-0.4,6.2-5.3,6.2c-5,0-5.3-2.5-5.2-6.3c0.2-5.6,0.2-11.2,0-16.8
		c-0.2-4.3,2-5.2,5.8-5.3c4.1-0.1,4.9,2,4.7,5.4C264.2,76.4,264.3,79.3,264.3,82.2z"/>
	<path class="st0" d="M445.5,184.4c0,2.9-0.2,5.8,0.1,8.7c0.4,3.9-0.7,5.7-5.1,5.7c-4,0-4.9-1.5-4.9-5.1c0-6-0.2-12.1-0.9-18.1
		c-0.6-4.6,2.3-6.5,5.4-6.7c3.2-0.2,5.6,2.1,5.1,6.2c-0.3,3.1-0.1,6.3-0.1,9.4C445.2,184.4,445.4,184.4,445.5,184.4z"/>
	<path class="st0" d="M234.9,82.1c0-2.9,0.2-5.8,0-8.7c-0.4-4.3,1.7-5.4,5.5-5.4c3.9,0,5,1.7,4.9,5.3c-0.2,6-0.3,12-0.1,18.1
		c0.1,4-1.7,4.9-5.2,4.9c-3.5,0-5.5-0.7-5.2-4.8C235.1,88.4,234.8,85.2,234.9,82.1C234.8,82.1,234.9,82.1,234.9,82.1z"/>
	<path class="st0" d="M391.9,110.8c-2.9,0-5.8-0.1-8.7,0c-3.3,0.1-5.5-0.3-5.6-4.6c-0.1-4.3,1.6-5.3,5.5-5.3
		c5.4,0.1,10.7-0.2,16.1-0.5c4.3-0.2,7.6,0.6,7.9,5.8c0.3,5.8-4.2,3.9-7.1,4.2c-2.7,0.3-5.4,0.1-8.1,0.1
		C391.9,110.7,391.9,110.8,391.9,110.8z"/>
	<path class="st0" d="M339,337c0,2.9-0.2,5.9,0.1,8.7c0.4,4.1-0.6,6.1-5.3,6.2c-4.9,0.1-4.8-2.5-4.9-5.9c0-6.5-0.2-13-0.6-19.5
		c-0.2-3.9,1.5-5,5.2-5c3.4,0,5.7,0.4,5.4,4.7c-0.2,3.6-0.1,7.2-0.1,10.8C338.8,337,338.9,337,339,337z"/>
	<path class="st0" d="M157.2,117.1c0,2.9-0.2,5.9,0,8.7c0.4,4.5-1.7,5.6-5.9,5.7c-4.6,0.1-4.4-2.4-4.4-5.6
		c0.2-5.8,0.3-11.7,0.2-17.5c-0.1-4,1.5-5.5,5.6-5.6c4.3-0.1,4.8,2.1,4.7,5.4c-0.1,2.9,0,5.8,0,8.8
		C157.4,117.1,157.3,117.1,157.2,117.1z"/>
	<path class="st0" d="M107.1,113c-2.5,0-4.9,0.3-7.4-0.1c-2.4-0.3-6.3,1.5-6.5-2.4c-0.2-3.5,3-6.8,6.1-7.1c6.8-0.7,13.8-0.4,20.7,0
		c3.1,0.2,2.2,3.4,2.3,5.5c0.1,2.6-0.8,4.3-3.8,4.3c-3.8,0-7.6,0-11.4,0C107.1,113.1,107.1,113,107.1,113z"/>
	<path class="st0" d="M92.1,152.2c0-2.9,0.2-5.8,0-8.7c-0.3-4.3,1.3-5.9,5.8-5.8c4.9,0,4.7,2.8,4.6,6.1c-0.2,6.1-0.5,12.1-0.6,18.2
		c0,4.1-2.2,4.6-5.6,4.6c-3.6,0-4.7-1.5-4.5-4.9c0.2-3.1,0-6.3,0-9.4C91.9,152.2,92,152.2,92.1,152.2z"/>
	<path class="st0" d="M66.8,321.9c2.7,0,5.4,0,8,0c3.4,0,6.6-0.5,6.5,4.9c-0.1,4.8-1.8,6.2-6.3,5.9c-5.1-0.3-10.3-0.1-15.4-0.2
		c-2,0-4.2,0.4-5.3-1.9c-1.1-2.4-3.1-4.8-1.7-7.5c1.2-2.4,4-1.2,6.1-1.3c2.7-0.2,5.4,0,8,0C66.8,321.8,66.8,321.8,66.8,321.9z"/>
	<path class="st0" d="M82.3,301.1c0,2.9-0.2,5.9,0,8.8c0.4,4.5-1,6.5-5.9,6.4c-5.4-0.1-4.9-3.3-4.7-6.7c0.3-6.5,0.9-13,0.9-19.5
		c0-4,2.3-4.2,5.2-4.3c3.3-0.1,5,0.9,4.8,4.6c-0.2,3.6,0,7.2,0,10.8C82.5,301.1,82.4,301.1,82.3,301.1z"/>
	<path class="st0" d="M345.2,299.7c0-3.1,0.2-6.3,0-9.4c-0.3-3.9,0.8-5.5,5.1-5.6c4.6-0.1,5,2.1,5,5.7c0,6.5,0.2,13,0.5,19.5
		c0.2,3.8-1.2,5.1-5,5.1c-3.9,0-5.9-0.9-5.5-5.2c0.3-3.3,0.1-6.7,0.1-10.1C345.3,299.7,345.3,299.7,345.2,299.7z"/>
	<path class="st0" d="M197.9,374.7c0-3.1,0.1-6.3,0-9.4c-0.2-3.8,0.3-6.2,5.3-6.2c5.3,0,5,3,4.9,6.4c-0.1,6.5-0.3,13,0,19.4
		c0.3,5.4-3.4,4.8-6.6,5.1c-4.1,0.3-4-2.4-3.8-5.3c0.2-3.3,0-6.7,0-10C197.8,374.7,197.8,374.7,197.9,374.7z"/>
	<path class="st0" d="M178.5,63.2c-3.4,0-6.7,0-10.1,0c-1.6,0-3.4,0-3.6-2.1c-0.2-1.7-0.5-3.6,1.4-4.8c8.1-5,17-3.3,25.6-2.8
		c2.7,0.1,1.7,3.6,1.7,5.8c0,2.4-0.9,3.9-3.5,3.9c-3.8,0-7.6,0-11.5,0C178.5,63.1,178.5,63.2,178.5,63.2z"/>
	<path class="st0" d="M398,388c-2.9,0-5.8,0.2-8.7-0.1c-2.4-0.2-6.1,1.7-5.7-3.8c0.3-4.4,1.1-6.5,6.1-6.2c6.5,0.3,13,0,19.5-0.2
		c2.9-0.1,5.4-0.3,5.3,3.8c0,3.6-0.7,6.3-5,6.3c-3.8,0-7.6,0-11.4,0C398,387.8,398,387.9,398,388z"/>
	<path class="st0" d="M398.5,367.7c-3.1,0-6.3-0.2-9.4,0c-3.9,0.3-6.1-0.4-6.1-5.3c0-4.8,2.4-4.8,5.9-4.8c6.7,0.1,13.4,0,20.1-0.3
		c3.8-0.2,5,1.5,5.2,5.1c0.2,3.8-1.1,5.3-4.9,5.1c-3.6-0.2-7.1,0-10.7,0C398.5,367.6,398.5,367.7,398.5,367.7z"/>
	<path class="st0" d="M356.5,95.5c-3.1,0-6.3-0.2-9.4,0c-3.5,0.2-5.4-0.7-5.5-4.7c0-4,1.3-5.6,5.4-5.5c6.5,0.2,13,0.2,19.5-0.1
		c3.6-0.2,4.7,1.1,4.7,4.6c0.1,3.6-0.7,5.5-4.7,5.3c-3.3-0.2-6.7,0-10.1,0C356.5,95.2,356.5,95.4,356.5,95.5z"/>
	<path class="st0" d="M318.7,337.4c0,3.1-0.2,6.3,0.1,9.4c0.4,4-0.9,5.6-5.2,5.6c-4.1,0-4.9-1.8-4.8-5.3c0.1-6.9,0-13.9-0.2-20.8
		c-0.1-3.7,1.7-4.6,4.9-4.5c3,0,5.3,0.3,5,4.3c-0.2,3.8-0.1,7.6-0.1,11.4C318.6,337.4,318.7,337.4,318.7,337.4z"/>
	<path class="st0" d="M250.8,286.1c3.1,0,6.3,0.1,9.4,0c3.4-0.2,5.5,0.4,5.5,4.6c0,4.1-1.5,5.5-5.5,5.4c-6.7-0.2-13.5-0.2-20.2,0.1
		c-3.9,0.1-5-1.5-5-5.2c0-3.7,1.1-5.4,5-5C243.6,286.2,247.2,286,250.8,286.1C250.8,286,250.8,286.1,250.8,286.1z"/>
	<path class="st0" d="M320.3,130.2c-2.7,0.2-5.3,0.3-8,0.4c-2.9,0.1-6.2,1.3-6.1-4.1c0.1-4.6,1.2-6.4,6-6.2
		c6.5,0.3,12.9,0.2,19.4-0.1c3.7-0.1,4.4,1.6,4.4,4.8c0,3.2-0.6,5.1-4.4,5c-3.8-0.2-7.6,0-11.4,0
		C320.3,130.1,320.3,130.2,320.3,130.2z"/>
	<path class="st0" d="M71.4,166.1c-2.7,0-5.4,0.2-8.1-0.1c-2.2-0.2-6.2,1.2-5.9-2.2c0.2-3.3,1.1-8.1,6.3-8.2
		c6.1-0.1,12.1,0.3,18.2,0.4c3.4,0.1,4.1,2.1,3.8,5c-0.3,2.6,0.1,5.6-4.2,5.3c-3.3-0.3-6.7-0.1-10.1-0.1
		C71.4,166.2,71.4,166.2,71.4,166.1z"/>
	<path class="st0" d="M117.4,338.1c0,2.9-0.2,5.8,0,8.7c0.3,4-0.6,6.2-5.4,6.1c-4.9-0.1-5.4-2.4-5.1-6.4c0.4-6.7,0.7-13.4,0.7-20.2
		c0-4,2.2-4.1,5.2-4.2c3.2-0.1,5.1,0.7,4.8,4.5C117.3,330.5,117.5,334.3,117.4,338.1C117.5,338.1,117.4,338.1,117.4,338.1z"/>
	<path class="st0" d="M145.6,300.5c0-2.9,0.1-5.8,0-8.7c-0.2-3.6-0.1-6.5,5.1-6.4c4.7,0.1,4.8,2.6,4.7,6.1c-0.2,6.5-0.3,13-0.1,19.5
		c0.2,4.3-1.6,5.3-5.5,5.3c-4.3,0-4.5-2.4-4.4-5.7c0.1-3.4,0-6.7,0-10.1C145.5,300.5,145.5,300.5,145.6,300.5z"/>
	<path class="st0" d="M214.7,86.8c2.7,0,5.4,0.1,8,0c3.1-0.1,5.7-0.3,5.7,4.2c0,4-1.2,5.6-5.3,5.5c-6.5-0.1-13,0.3-19.4,0.6
		c-3.3,0.2-4.4-1.2-4.2-4.4c0.2-2.7-0.4-5.6,3.8-5.6c3.8,0,7.6,0,11.4,0C214.7,87,214.7,86.9,214.7,86.8z"/>
	<path class="st0" d="M160.4,411.3c0-2.9,0.2-5.8,0-8.7c-0.3-3.9,0.4-6.2,5.3-6.2c5,0.1,5.4,2.5,5.2,6.4c-0.3,6.5-0.5,13-0.4,19.5
		c0.1,4-1.7,4.8-5.3,4.8c-3.7,0-5.3-1.1-5-5c0.3-3.6,0.1-7.2,0.1-10.8C160.3,411.3,160.3,411.3,160.4,411.3z"/>
	<path class="st0" d="M228.1,374.4c0,3.4-0.1,6.7,0,10c0.2,3.4-0.4,5.5-4.6,5.5c-3.9,0-5.7-1.1-5.6-5.3c0.3-6.9,0.3-13.9,0.1-20.8
		c-0.1-4.1,1.9-4.7,5.3-4.7c3.3,0,5,0.9,4.7,4.6C227.9,367.3,228.1,370.8,228.1,374.4C228.1,374.4,228.1,374.4,228.1,374.4z"/>
	<path class="st0" d="M124,374.2c0-3.1,0.2-6.3,0-9.4c-0.2-3.7,0.5-5.7,5-5.7c4.5,0,5.1,2,5,5.8c-0.3,6.9-0.4,13.9-0.3,20.8
		c0.1,3.8-1.9,4.5-5.1,4.4c-3-0.1-5.3-0.5-5.1-4.4c0.2-3.8,0-7.6,0-11.4C123.7,374.2,123.8,374.2,124,374.2z"/>
	<path class="st0" d="M143.9,373.6c0-2.9,0.1-5.8,0-8.7c-0.2-3.6,0.3-5.8,4.9-5.9c4.7-0.1,5.6,1.9,5.5,6c-0.3,6.7-0.2,13.4-0.1,20.1
		c0.1,3.9-1.9,4.9-5.3,5c-3.7,0.1-5.3-1.3-5.1-5.1c0.2-3.8,0-7.6,0-11.4C143.8,373.6,143.9,373.6,143.9,373.6z"/>
	<path class="st0" d="M180.8,411.9c0-3.4,0.2-6.8-0.1-10.1c-0.3-4,1-5.7,5.2-5.5c4.1,0.2,5.4,1.7,5.1,5.8
		c-0.4,6.7-0.5,13.5-0.4,20.2c0.1,3.9-1.6,4.8-5.3,4.9c-3.9,0-5.2-1.4-4.8-5.1c0.3-3.3,0.1-6.7,0.1-10.1
		C180.7,411.9,180.7,411.9,180.8,411.9z"/>
	<path class="st0" d="M352.3,116.3c0,2.7-0.2,5.4,0,8.1c0.3,3.8-0.5,5.7-5,5.7c-4.4,0-5.2-1.9-5.1-5.7c0.1-6.1-0.1-12.1-0.4-18.2
		c-0.2-4,1.7-4.9,5.2-4.9c3.6,0,5.5,0.8,5.2,4.8c-0.3,3.3-0.1,6.7-0.1,10.1C352.3,116.3,352.3,116.3,352.3,116.3z"/>
	<path class="st0" d="M85.1,186.2c0,3.1-0.1,6.3,0,9.4c0.2,3.7-0.6,5.8-5.1,5.8c-4.7,0-5-2.3-4.8-5.9c0.3-6.1,0.5-12.1,0.3-18.2
		c-0.2-4.6,1.8-5.8,6-5.6c4.4,0.1,4.6,2.5,4.3,5.8c-0.3,2.9-0.4,5.8-0.6,8.7C85.2,186.2,85.1,186.2,85.1,186.2z"/>
	<path class="st0" d="M214,78.5c-2.9,0-5.8-0.1-8.7,0c-3.6,0.2-5.8-0.3-5.7-4.9c0-4.9,2.7-4.7,6-4.7c6.3,0,12.5,0,18.8-0.5
		c3.2-0.3,4.6,0.5,4.5,3.8c-0.1,2.9,0.4,6.1-4.1,6c-3.6-0.1-7.2,0-10.7,0C214,78.3,214,78.4,214,78.5z"/>
	<path class="st0" d="M137.9,117.8c0,2.7-0.2,5.4,0,8.1c0.4,4.3-1.2,5.9-5.6,5.9c-4.5,0-4.4-2.5-4.3-5.6c0.1-6,0.3-12.1,0.1-18.2
		c-0.1-4.2,2.2-4.6,5.5-4.8c3.4-0.1,5.1,1,4.9,4.6c-0.2,3.4,0,6.7,0,10.1C138.3,117.8,138.1,117.8,137.9,117.8z"/>
	<path class="st0" d="M282.3,301c0,2.9-0.1,5.8,0,8.7c0.1,3.5,0.5,6.5-4.8,6.6c-5,0-5.4-2.4-5.3-6.2c0.2-6.2,0.2-12.5,0-18.7
		c-0.2-4,1-5.4,5.2-5.5c4.7-0.1,5,2.3,4.9,5.8C282.1,294.7,282.2,297.9,282.3,301C282.3,301,282.3,301,282.3,301z"/>
	<path class="st0" d="M254.8,337.4c0-3.1,0.2-6.3,0-9.4c-0.3-3.8,0.6-5.7,5-5.7c4.6-0.1,5,2.1,5,5.7c-0.1,6.7-0.1,13.4,0.2,20.1
		c0.1,3.6-1.4,4.6-4.8,4.6c-3.3-0.1-5.7-0.3-5.4-4.6C255.1,344.6,254.8,341,254.8,337.4C254.8,337.4,254.8,337.4,254.8,337.4z"/>
	<path class="st0" d="M407.9,150.1c0,2.9-0.2,5.9,0.1,8.8c0.4,3.9-0.8,5.7-5.1,5.9c-4.8,0.2-4.8-2.5-4.8-6c0.1-6.1,0-12.1-0.3-18.2
		c-0.2-3.8,1.1-5.1,5-5.2c4,0,5.1,1.6,4.8,5.3c-0.2,3.1,0,6.3,0,9.4C407.7,150.1,407.8,150.1,407.9,150.1z"/>
	<path class="st0" d="M213.7,322.4c2.7,0,5.4,0.1,8.1,0c3.5-0.1,6.4-0.4,6.5,4.9c0.1,5.6-2.9,5.5-6.8,5.4c-6.1-0.1-12.1-0.2-18.2,0
		c-4.1,0.2-5.4-1.3-5.5-5.4c-0.1-4.5,2.1-5.2,5.7-5C206.9,322.5,210.3,322.3,213.7,322.4C213.7,322.3,213.7,322.4,213.7,322.4z"/>
	<path class="st0" d="M425.2,182.4c0.4,4.9,0.5,7.8,0.8,10.7c0.5,4.1-0.5,6.2-5.3,6.2c-4.5,0-5.1-2.1-5.1-5.7c0.1-6,0-12.1-0.3-18.1
		c-0.2-3.7,0.9-5.2,4.9-5.2c3.6,0,5.4,0.7,5.1,4.8C425,178.1,425.2,181.3,425.2,182.4z"/>
	<path class="st0" d="M282.2,373.9c0,3.1-0.2,6.3,0,9.4c0.3,4-0.5,6.2-5.3,6.2c-4.7,0-4.9-2.4-4.8-5.9c0.1-6.7,0.1-13.4-0.1-20.1
		c-0.1-3.9,1.9-4.3,5-4.3c2.9,0,5.4-0.1,5.1,4C281.9,366.7,282.1,370.3,282.2,373.9C282.1,373.9,282.2,373.9,282.2,373.9z"/>
	<path class="st0" d="M321.8,200.5c-2.9,0-5.8-0.2-8.7,0c-3.8,0.3-5.6-0.8-5.7-5.2c0-4.6,2.3-5,5.9-5c6.5,0.1,13,0.2,19.5-0.1
		c3.6-0.1,4.5,1.4,4.5,4.8c0,3.5-0.6,5.6-4.7,5.3c-3.6-0.3-7.2-0.1-10.8-0.1C321.8,200.4,321.8,200.4,321.8,200.5z"/>
	<path class="st0" d="M177.7,112.5c-2.9,0-5.8-0.1-8.7,0c-3.3,0.2-5.6-0.2-5.5-4.5c0-4.2,1.7-5.3,5.6-5.2c6.5,0.2,13,0.2,19.5-0.1
		c3.8-0.1,4.4,1.6,4.4,4.9c0,3.3-0.8,5-4.5,4.8c-3.6-0.2-7.2,0-10.7,0C177.7,112.4,177.7,112.5,177.7,112.5z"/>
	<path class="st0" d="M358,155.1c2.9,0,5.9,0.1,8.8,0c3.3-0.2,5.5,0.1,5.6,4.5c0,4.2-1.3,5.6-5.5,5.4c-6.5-0.3-13-0.2-19.6,0.1
		c-4.2,0.2-4.7-1.8-4.8-5.3c-0.1-3.6,1.2-4.8,4.7-4.6c3.6,0.2,7.2,0,10.8,0C358,155.2,358,155.1,358,155.1z"/>
	<path class="st0" d="M178,121.2c3.1,0,6.3,0.1,9.4,0c3.3-0.1,5.5,0.4,5.5,4.6c0,4.1-1.4,5.5-5.5,5.3c-6.5-0.2-13-0.1-19.5,0.1
		c-3.4,0.1-4.8-0.9-4.8-4.5c0.1-3.5,0.8-5.6,4.8-5.3c3.3,0.2,6.7,0,10.1,0C178,121.4,178,121.3,178,121.2z"/>
	<path class="st0" d="M147,186.9c0-3.1,0.2-6.3,0-9.4c-0.2-3.8,0.9-5.7,5.2-5.8c4.7-0.2,5,2.3,4.9,5.8c-0.2,6.5-0.3,13-0.1,19.5
		c0.1,3.9-2.1,4.2-5.1,4.3c-3.2,0.1-5.2-0.5-4.9-4.3C147.1,193.7,146.9,190.3,147,186.9C146.9,186.9,146.9,186.9,147,186.9z"/>
	<path class="st0" d="M199.6,186.6c0-3.3,0.2-6.7,0-10c-0.3-3.9,1.4-5,5.1-4.9c3.4,0,4.8,1,4.7,4.6c-0.2,6.7-0.3,13.4-0.1,20.1
		c0.1,3.9-1.6,4.9-5.2,5c-4.2,0.1-4.9-1.8-4.6-5.3C199.7,192.9,199.5,189.7,199.6,186.6C199.5,186.6,199.6,186.6,199.6,186.6z"/>
	<path class="st0" d="M173,152.1c0,2.9-0.2,5.8,0,8.7c0.3,4-1.1,5.5-5.3,5.5c-4.1,0-4.9-1.7-4.7-5.3c0.2-6.5,0.3-13,0.1-19.4
		c-0.1-4,1.9-4.8,5.3-4.9c3.5-0.1,4.9,1.2,4.7,4.7C172.9,144.9,173.1,148.5,173,152.1C173,152.1,173,152.1,173,152.1z"/>
	<path class="st0" d="M322.1,181.3c-2.9,0-5.8-0.1-8.7,0c-3.3,0.1-5.9,0.3-6-4.6c-0.1-4.9,2.2-5.4,6.1-5.3
		c6.2,0.2,12.5,0.1,18.8-0.2c3.9-0.2,5,1.3,5,5c0,3.8-1.4,5.2-5.1,5c-3.3-0.2-6.7,0-10,0C322.1,181.2,322.1,181.3,322.1,181.3z"/>
	<path class="st0" d="M249.6,62.4c-3.1,0-6.3-0.2-9.4,0c-3.5,0.2-5.4-0.6-5.3-4.7c0.1-3.9,1.5-5,5.2-4.9c6.7,0.2,13.4,0.1,20.1-0.1
		c3.3-0.1,4.3,1.2,4.3,4.3c-0.1,2.9-0.1,5.4-4.1,5.2c-3.6-0.2-7.2,0-10.7,0C249.6,62.4,249.6,62.4,249.6,62.4z"/>
	<path class="st0" d="M139.1,416.2c2.9,0,5.8,0.1,8.7,0c4-0.2,6.2,0.6,6.2,5.4c0,4.8-2.3,5.3-6.2,5.4c-7.5,0.2-14.7,0.3-20.6-5.4
		c-1.1-1.1-3.1-1.6-2.6-3.5c0.6-2.2,2.7-1.9,4.5-1.9C132.4,416.1,135.7,416.2,139.1,416.2C139.1,416.2,139.1,416.2,139.1,416.2z"/>
	<path class="st0" d="M375.4,299.9c0,3.1-0.2,6.3,0,9.4c0.2,3.4-0.2,5.4-4.5,5.5c-4.1,0-5.5-1.3-5.4-5.4c0.1-6.7-0.1-13.4-0.5-20.1
		c-0.2-3.5,1.2-4.7,4.7-4.7c3.3,0,5.7,0.4,5.4,4.6c-0.3,3.6-0.1,7.1-0.1,10.7C375.2,299.9,375.3,299.9,375.4,299.9z"/>
	<path class="st0" d="M429.2,164c-3.1,0-6.3-0.1-9.4,0c-3.3,0.2-5.4-0.3-5.5-4.6c0-4.3,1.7-5.3,5.6-5.2c6,0.1,12.1,0,18.1-0.3
		c3.9-0.2,5.7,1.2,6,5.2c0.3,4.5-2.3,4.5-5.5,4.5c-3.1-0.1-6.3,0-9.4,0C429.2,163.8,429.2,163.9,429.2,164z"/>
	<path class="st0" d="M244.7,151.3c0,3.1-0.1,6.3,0,9.4c0.2,3.4-0.5,5.5-4.7,5.5c-4.1,0-5.6-1.4-5.4-5.5c0.3-6.5,0.2-13,0-19.5
		c-0.1-3.8,1.9-4.4,5.1-4.4c3.3-0.1,5.1,0.8,4.9,4.5C244.5,144.5,244.7,147.9,244.7,151.3C244.7,151.3,244.7,151.3,244.7,151.3z"/>
	<path class="st0" d="M356.7,146c-2.9,0-5.8-0.2-8.7,0c-3.8,0.3-5.6-0.7-5.7-5c-0.1-4.7,2.3-4.9,5.9-4.8c6.3,0.1,12.5,0.1,18.8-0.1
		c3.9-0.2,5,1.5,5.1,5.1c0.1,4.1-1.8,5-5.3,4.8C363.4,145.8,360,146,356.7,146C356.7,146,356.7,146,356.7,146z"/>
	<path class="st0" d="M107.9,121.9c2.7,0,5.4,0.1,8,0c3.4-0.2,6-0.1,6,4.7c0,4.4-1.8,5.4-5.6,5.3c-6.5-0.2-12.9-0.3-19.4-0.2
		c-3.8,0.1-4.3-2-4.2-5.1c0-3.2,0.7-5.1,4.5-4.8C100.7,122,104.3,121.8,107.9,121.9C107.9,121.9,107.9,121.9,107.9,121.9z"/>
	<path class="st0" d="M392.9,119.9c3.1,0,6.3,0.2,9.4,0c3.5-0.3,5.3,0.6,5.3,4.7c0,3.7-1.1,5.3-4.9,5.2c-6.7-0.2-13.4-0.1-20.1,0.1
		c-3.5,0.1-4.6-1.5-4.7-4.8c-0.1-3.2,0.6-5.1,4.3-4.9c3.6,0.2,7.1,0,10.7,0C392.9,120.1,392.9,120,392.9,119.9z"/>
	<path class="st0" d="M284.8,96.2c-2.9,0-5.8-0.2-8.7,0c-3.7,0.3-5.9-0.5-5.8-5c0.1-4.1,2-4.8,5.5-4.7c6.3,0.1,12.6,0.1,18.8-0.2
		c3.6-0.2,5.2,0.7,5.2,4.7c0,3.7-0.9,5.4-4.9,5.1C291.5,96,288.2,96.2,284.8,96.2C284.8,96.2,284.8,96.2,284.8,96.2z"/>
	<path class="st0" d="M299.8,116.4c0,3.1-0.2,6.3,0,9.4c0.2,3.5-0.6,5.3-4.7,5.3c-3.9,0-5.1-1.3-5-5.1c0.2-6.5,0.1-13-0.1-19.5
		c-0.1-3.7,1.6-4.6,4.9-4.6c3.3-0.1,5.1,0.7,4.9,4.4c-0.2,3.4,0,6.7,0,10.1C299.7,116.4,299.7,116.4,299.8,116.4z"/>
	<path class="st0" d="M284.8,77.6c-3.1,0-6.3-0.1-9.4,0c-3,0.1-5.2-0.3-5.2-4.2c0-3.9,1.3-5.7,5.5-5.6c6.5,0.2,13,0.1,19.4-0.3
		c3.7-0.2,4.6,1.3,4.5,4.7c-0.1,3-0.1,5.4-4.1,5.1c-3.6-0.2-7.2,0-10.7,0C284.8,77.4,284.8,77.5,284.8,77.6z"/>
	<path class="st0" d="M127.9,186.7c0-2.9,0.1-5.8,0-8.8c-0.1-3.5,0.2-6,4.9-6c4.4,0,5.2,2,5.1,5.8c-0.3,6.3-0.3,12.6-0.1,18.9
		c0.1,4-1.8,4.8-5.4,4.9c-4.1,0.1-5-1.7-4.7-5.3c0.2-3.1,0.1-6.3,0.1-9.4C127.7,186.7,127.8,186.7,127.9,186.7z"/>
	<path class="st0" d="M111.6,152.5c0-2.9,0.2-5.8,0-8.7c-0.3-4,0.5-6.1,5.4-6.1c5,0,4.6,2.8,4.6,6.1c-0.1,6.1-0.3,12.1-0.1,18.2
		c0.1,4.3-2.2,4.5-5.6,4.6c-3.4,0-5.1-1.1-4.7-4.6C111.4,158.7,111.5,155.6,111.6,152.5z"/>
	<path class="st0" d="M144.2,87.8c2.7,0,5.4,0.1,8.1,0c3.1-0.1,5.7-0.3,5.6,4.3c-0.1,4.1-1.3,5.6-5.4,5.4c-6.5-0.3-13-0.1-19.5,0.1
		c-3.2,0.1-4.5-1.2-4.3-4.4c0.2-2.8,0.1-5.5,4.2-5.3c3.8,0.2,7.6,0,11.4,0C144.2,87.9,144.2,87.8,144.2,87.8z"/>
	<path class="st0" d="M301.2,186.8c0,2.7-0.1,5.4,0,8.1c0.1,3.4,0.1,6.2-4.8,6c-4.1-0.2-5.4-1.6-5.3-5.7c0.3-6.3,0.2-12.6-0.1-18.9
		c-0.2-4.1,1.7-4.8,5.3-4.8c3.4,0,5,0.9,4.8,4.5c-0.2,3.6,0,7.2,0,10.8C301.1,186.8,301.1,186.8,301.2,186.8z"/>
	<path class="st0" d="M217.5,445.8c0-2.2,0.1-4.5,0-6.7c-0.3-4,1.2-5.5,5.4-5.5c4.2-0.1,5.5,1.4,5.2,5.5c-0.3,5.1-0.1,10.3-0.1,15.4
		c0,2.7-0.2,5.2-3.8,4.6c-2.8-0.5-6.7,0.4-6.7-4.5C217.5,451.6,217.5,448.7,217.5,445.8C217.5,445.8,217.5,445.8,217.5,445.8z"/>
	<path class="st0" d="M315.9,82c0,2.7-0.1,5.4,0,8.1c0.2,3.4,0.1,6-4.8,6c-4.7,0-5-2.2-4.9-5.8c0.1-6.3,0.1-12.6-0.2-18.9
		c-0.2-4.1,2.3-4.1,5.2-4.2c2.9-0.1,4.7,0.5,4.6,4c-0.2,3.6,0,7.2,0,10.8C315.8,82,315.9,82,315.9,82z"/>
	<path class="st0" d="M193,83.3c0,2.9-0.2,5.8,0,8.7c0.3,3.7-1.1,5.2-4.9,5.2c-4,0.1-4.9-1.6-4.8-5.2c0.3-6.2,0.3-12.5,0.1-18.8
		c-0.1-3.9,1.8-4.3,4.9-4.3c3.2,0,5.1,0.5,4.8,4.3c-0.3,3.3-0.1,6.7-0.1,10.1C193.1,83.3,193.1,83.3,193,83.3z"/>
	<path class="st0" d="M320.3,61.1c-2.9,0-5.8-0.2-8.7,0c-3.6,0.2-5.8-0.2-5.8-4.8c0-4.5,2.1-5.1,5.8-5c4.5,0.1,8.9-0.1,13.4-0.5
		c3.1-0.2,5.7,0.8,8.3,2.2c2.4,1.2,1.5,3.5,1.6,5.3c0,2.5-1.9,2.6-3.8,2.6c-3.6,0-7.1,0-10.7,0C320.3,61,320.3,61.1,320.3,61.1z"/>
	<path class="st0" d="M371.6,116.3c0,2.7-0.2,5.4,0,8.1c0.3,3.8-0.6,5.7-5,5.6c-4.5,0-5.1-2.1-5-5.8c0.1-6,0.1-12.1-0.2-18.1
		c-0.2-4.1,1.6-4.7,5.1-4.8c3.9-0.1,5.2,1.3,4.9,5c-0.2,3.3,0,6.7,0,10.1C371.4,116.3,371.5,116.3,371.6,116.3z"/>
	<path class="st0" d="M228.3,116.6c0,2.9-0.1,5.8,0,8.7c0.2,3.5-0.1,5.9-4.8,6c-4.4,0-5.2-1.8-5.1-5.6c0.2-5.8,0.3-11.6,0-17.4
		c-0.2-4.2,0.9-5.9,5.5-5.9c5.2,0,4.3,3.3,4.3,6.2C228.3,111.3,228.3,114,228.3,116.6z"/>
	<path class="st0" d="M353.7,185.9c0,2.9-0.2,5.8,0.1,8.7c0.4,3.9-0.7,5.6-5,5.6c-4.1,0-4.8-1.8-4.7-5.3c0.1-6,0-12-0.2-18.1
		c-0.1-3.5,0.1-5.9,4.7-6c4.4-0.1,5.3,1.8,5.1,5.6c-0.2,3.1,0,6.2,0,9.4C353.6,185.9,353.6,185.9,353.7,185.9z"/>
	<path class="st0" d="M336.2,150.9c0,2.9-0.2,5.8,0.1,8.7c0.4,4-0.9,5.5-5.1,5.6c-4.6,0.1-5.1-2.1-5-5.7c0.1-6.3,0.1-12.5-0.2-18.8
		c-0.2-4.4,2.5-4.3,5.6-4.5c3.6-0.2,4.8,1.1,4.6,4.6c-0.2,3.3,0,6.7,0,10.1C336.1,150.9,336.2,150.9,336.2,150.9z"/>
	<path class="st0" d="M142,166.4c-2.9,0-5.8-0.2-8.7,0c-3.9,0.3-5.7-0.6-5.6-5.1c0.1-4,1.6-4.9,5.2-4.8c6.3,0.1,12.5-0.1,18.8-0.4
		c3.7-0.2,5.2,0.9,5.2,4.9c-0.1,3.5-0.7,5.6-4.8,5.3c-3.3-0.2-6.7,0-10.1,0C142,166.3,142,166.4,142,166.4z"/>
	<path class="st0" d="M142.7,137.5c2.9,0,5.8,0.1,8.7,0c3.2-0.2,5.7-0.2,5.7,4.3c0,3.8-0.7,5.9-5.2,5.7c-6.5-0.2-13-0.1-19.5,0.1
		c-3.6,0.1-4.6-1.3-4.6-4.7c0-3.5,0.6-5.6,4.7-5.2c3.3,0.3,6.7,0.1,10.1,0.1C142.7,137.7,142.7,137.6,142.7,137.5z"/>
	<path class="st0" d="M199.5,117.1c0-2.9,0.1-5.8,0-8.7c-0.2-3.6,0.3-5.8,4.9-5.8c4.7-0.1,4.9,2.2,4.8,5.8c-0.2,6-0.3,12.1,0,18.1
		c0.2,4.1-1.9,4.7-5.3,4.8c-3.6,0.1-4.7-1.3-4.5-4.8c0.2-3.1,0-6.2,0-9.4C199.4,117.1,199.5,117.1,199.5,117.1z"/>
	<path class="st0" d="M272.4,446c0-2.2,0.1-4.5,0-6.7c-0.1-3.3-0.2-6,4.6-6.1c4.5-0.1,6,1.6,5.9,5.7c-0.1,4.7-0.2,9.4,0.1,14.1
		c0.3,5.4-3.4,5.4-7,5.8c-4.6,0.5-3.4-3-3.5-5.5C272.3,451,272.4,448.5,272.4,446z"/>
	<path class="st0" d="M164.5,83.3c0-2.9,0.2-5.8,0-8.7c-0.2-3.7,0.4-5.7,4.9-5.7c4.9,0,4.8,2.6,4.7,6c-0.1,6-0.3,12.1-0.1,18.1
		c0.1,3.8-2,4.3-5.1,4.4c-3.4,0.1-5-1-4.7-4.6c0.2-3.1,0.1-6.3,0.1-9.4C164.3,83.3,164.4,83.3,164.5,83.3z"/>
	<path class="st0" d="M280.6,51.1c0,2,0.1,4,0,6c-0.1,1.9,0.6,4.5-2.2,4.9c-2.6,0.4-6.3,1.5-7.4-0.8c-0.8-1.7-5.1-3.3-1.7-6.9
		c2.5-2.7,0.8-6.9,0.9-10.4c0-3.4,1-5,4.7-4.6c2.9,0.3,6.1-0.3,5.8,4.3C280.4,46.1,280.5,48.6,280.6,51.1
		C280.5,51.1,280.5,51.1,280.6,51.1z"/>
	<path class="st0" d="M356,76.4c-2.9,0-5.8-0.2-8.7,0c-3.7,0.3-5.8-0.5-5.8-5c0-4.7,2.4-4.9,5.9-5c7.6-0.1,15.3-1,21.6,5
		c1,0.9,2.4,1.5,1.9,3.1c-0.5,1.7-2.1,1.3-3.4,1.4c-3.8,0.1-7.6,0-11.4,0C356,76.1,356,76.2,356,76.4z"/>
	<path class="st0" d="M229.1,50.8c0,2.2-0.2,4.5,0,6.7c0.4,4.3-1.8,5.2-5.6,5.2c-4,0-5-1.8-4.8-5.3c0.2-3.3,0.3-6.7,0-10
		c-0.5-4.9,1.1-7.5,6.4-7.7c6-0.2,3.6,4.3,4,7.1C229.3,48.1,229.1,49.5,229.1,50.8C229.1,50.8,229.1,50.8,229.1,50.8z"/>
	<path class="st0" d="M292.7,444.1c0-2,0.2-4,0-6c-0.6-4.5,1.9-5.1,5.5-5.3c4.2-0.3,4.9,2,4.8,5.3c0,3.1-0.3,6.3,0.2,9.4
		c0.9,6-2.8,7.7-7.4,7.7c-5.4,0-2.3-4.6-3-7C292.4,446.8,292.7,445.4,292.7,444.1C292.7,444.1,292.7,444.1,292.7,444.1z"/>
	<path class="st0" d="M431.7,340.4c1.3,0,2.8-0.3,4,0.1c2.2,0.7,6.6-2,6.3,2c-0.3,3.4-1.6,8.3-7,8.3c-3.1,0-6.3-0.2-9.4,0.2
		c-4.5,0.4-5.8-1.4-5.9-5.7c-0.1-4.8,2.5-4.9,5.9-4.8C427.6,340.6,429.7,340.5,431.7,340.4C431.7,340.5,431.7,340.5,431.7,340.4z"/>
	<path class="st0" d="M207.8,444.7c0,1.6,0.2,3.2,0,4.7c-0.4,2.4,1.7,6.6-3.5,6c-3.5-0.4-7.4-0.7-6.9-6c0.2-2.9,0.1-5.8-0.1-8.7
		c-0.2-4.2-0.1-7.3,5.7-7.2c6,0.1,4.9,3.7,4.9,7.2C207.9,442,207.9,443.4,207.8,444.7C207.8,444.7,207.8,444.7,207.8,444.7z"/>
	<path class="st0" d="M143.7,78.7c-2.9,0-5.8,0.1-8.7,0c-1.4-0.1-3.5,0.7-3.9-1.4c-0.4-1.8,1.7-2.3,2.8-3.4c6.1-5.6,13.5-5,20.9-4.8
		c3.5,0.1,3.1,2.4,3.2,4.6c0,2.5,0.4,5.1-3.4,5.1C150.9,78.6,147.3,78.7,143.7,78.7z"/>
	<path class="st0" d="M250.1,453.8c3.8,0,7.6,0,11.4,0c2.3,0,4.1,0.7,4,3.3c-0.1,2.4-1.7,3.5-4,3.4c-7.8,0-15.6,0-23.4,0
		c-2.1,0-3.3-1-3.3-3.3c0-2.2,1.1-3.3,3.3-3.3c4,0,8,0,12.1,0C250.1,453.9,250.1,453.8,250.1,453.8z"/>
	<path class="st0" d="M71.4,341.9c9.5,0.1,11.1,1.4,9.5,7.8c-0.2,0.8-0.5,1.8-1.1,2.3c-4.7,3.8-17.5-0.9-18.6-6.8
		c-0.5-2.5,0.8-3.2,2.9-3.3C66.4,341.8,68.9,341.9,71.4,341.9z"/>
	<path class="st0" d="M299.5,52.3c-0.4,4.1,2.3,10.1-5.9,9.5c-2.9-0.2-4.4-1.3-3.8-4c1.2-5.4-3.5-12,2.1-16.1
		c3.1-2.3,7.6,1.6,7.7,5.9C299.5,49.1,299.5,50.7,299.5,52.3z"/>
	<path class="st0" d="M424.6,145c-2.2,0-4.5,0-6.7,0c-2,0-3.7-0.3-3.6-2.8c0.1-2.1-1.1-4.6,1-6.3c2.9-2.3,16.6-0.1,18.4,2.9
		c0.9,1.5,2.7,2.8,1.8,4.8c-1,2.1-3.2,1-4.8,1.2c-2,0.2-4,0-6.1,0C424.6,144.9,424.6,144.9,424.6,145z"/>
	<path class="st0" d="M75.9,147.4c-0.9,0-1.8,0.1-2.7,0c-2.2-0.4-6.1,1.2-6-2.1c0.1-3.5,1.9-7.6,6.5-8.1c2.6-0.3,5.4,0.2,8,0.2
		c4.1-0.1,4.5,2.4,4.5,5.7c0,3.7-1.7,4.7-5,4.5C79.5,147.3,77.7,147.4,75.9,147.4C75.9,147.4,75.9,147.4,75.9,147.4z"/>
	<path class="st0" d="M209.6,54c-0.7,3.2,2.6,9.5-5.9,8.8c-2.7-0.2-4.1-1-4-3.9c0.1-2.9,0.2-5.8-0.1-8.7c-0.6-5,2.1-7,6.5-7.1
		c5.4-0.1,3.1,4.2,3.5,6.8C209.9,51.1,209.7,52.2,209.6,54z"/>
	<path class="st0" d="M249.6,43.8c-3.8,0-7.6,0-11.4,0c-1.3,0-2.8-0.2-3-1.9c-0.3-1.9,0.9-3.2,2.6-3.3c8.1-0.3,16.1-0.3,24.2-0.4
		c1.6,0,2.3,1.2,2.2,2.8c-0.1,2-1.4,2.7-3.1,2.7c-3.8,0-7.6,0-11.4,0C249.6,43.7,249.6,43.7,249.6,43.8z"/>
	<path class="st0" d="M395.2,399.5c0.2,7.2-4.8,11.5-8.2,11c-5-0.7-1.5-6.9-2.4-10.6c-0.8-3.8,0.5-5.4,4.9-5.5
		C394.9,394.2,395.6,396.8,395.2,399.5z"/>
	<path class="st0" d="M415.1,112.5c2.7,3.5,5.4,6.9,8,10.5c1.2,1.7,1.5,4.1,0.2,5.6c-1.7,2-4.6,1-6.9,1c-2.6,0-2.4-2.2-2.5-3.9
		c-0.1-4.1,0-8.3,0-12.4C414.2,112.9,414.6,112.7,415.1,112.5z"/>
	<path class="st0" d="M426.4,356.8c4.1-0.8,5.3,2.4,3.9,6c-1.6,4.1-4.3,11-8,9.7c-3.6-1.3-1.6-8.7-1.7-13.4
		C420.6,356.5,423.6,357.1,426.4,356.8z"/>
	<path class="st0" d="M377.2,86.5c1.3-2.2-1.8-7.3,2.5-6.7c3.8,0.6,8.1,3.6,7.9,9.4c-0.1,3.7-0.5,5.6-5,5.7
		C375.1,95.2,378.4,89.8,377.2,86.5z"/>
	<path class="st0" d="M116.5,404.1c-0.9,2,1.7,5.6-2.3,6.5c-2.8,0.6-7.9-6.4-8-10.1c-0.2-4.3,2.3-4.4,5.5-4.5
		C118.4,395.8,116.1,400.6,116.5,404.1z"/>
	<path class="st0" d="M122.5,90.2c0.1,4.1,0.6,7.9-5.1,7.4c-2.8-0.3-5.5,0.1-5.3-4c0.1-2.8,5.8-9.8,8.3-9.3
		C124.6,85,121.6,88.6,122.5,90.2z"/>
	<path class="st0" d="M80,365.1c-1.1,1.3,1.7,6.6-2.1,5.9c-3.8-0.7-6.2-5.8-7.1-9.8c-0.8-3.5,3.1-1.8,4.9-2.1
		C79.7,358.4,81.1,360.4,80,365.1z"/>
	<path class="st0" d="M86.1,124.7c0.8,5-0.4,7.4-5.1,6.6c-1.5-0.3-4.6,0.6-3.8-2c1.2-3.7,3.3-8,7.2-8.8
		C87.6,119.8,85.7,123.8,86.1,124.7z"/>
	<path class="st0" d="M454.4,187.9c3.1,1.4,2.6,4.6,3.5,7.2c0.5,1.6,0.8,3.1-1.6,3.3c-3.1,0.4-4-1.4-3.8-4
		C452.7,192.2,451.1,189.5,454.4,187.9z"/>
	<path class="st0" d="M49.3,194.7c-1,2.3,1.1,5.7-3,5.9c-1.8,0.1-2.1-1.5-1.7-2.8c0.9-2.4,0.2-6.2,3.1-6.7
		C50.5,190.5,48.4,193.7,49.3,194.7z"/>
	<path class="st0" d="M459,282.6c2.3-0.2,2.9,1.4,2.3,3c-1,2.5,0.4,6.9-3.2,7.2c-3.2,0.3-1.7-3.4-2-5.3
		C455.9,285.3,455.5,282.7,459,282.6z"/>
	<path class="st0" d="M44.9,295.8c-0.8-0.3-1.1-0.3-1.2-0.4c-2-2.9-2.7-6.1-1.4-9.4c0.1-0.4,1.7-0.6,2.4-0.4
		C46.4,286.1,46.4,289.1,44.9,295.8z"/>
	<path class="st1" d="M345.4,242.3c0-7.1,3.2-11.4,8.6-11.4c5,0.1,8,4.4,8.1,11.8c0.1,7-2.8,11.2-7.7,11.4
		C349,254.4,345.4,249.6,345.4,242.3z"/>
	<path class="st1" d="M239.7,236.3c0.9,4.4,3.6,6.9,2.1,10.1c-0.6,1.2-3.6,1.3-4.1,0.1C236.2,243.4,238.2,240.6,239.7,236.3z"/>
</g>
<rect x="66.8" y="222.5" class="st2" width="376.1" height="40.5"/>
<text transform="matrix(1.15 0 0 1 78.3052 262.54)" class="st0 st3 st4 st5">NEW YORK</text>
</svg>
